<?xml version="1.0" encoding="utf-8"?>
<!-- Generator: Adobe Illustrator 25.0.1, SVG Export Plug-In . SVG Version: 6.00 Build 0)  -->
<svg version="1.1" id="Ebene_1" xmlns="http://www.w3.org/2000/svg" xmlns:xlink="http://www.w3.org/1999/xlink" x="0px" y="0px"
	 viewBox="0 0 500 500" style="enable-background:new 0 0 500 500;" xml:space="preserve">
<style type="text/css">
	.st0{fill:#black;}
	.st1{display:none;opacity:0.5;fill:#black;}
	.st2{fill:#404040;}
	.st3{fill:#FF4400;}

	@media (prefers-color-scheme: dark) {
		.st0{fill:#DDDDDD;}
		.st1{display:none;opacity:0.25;fill:white;}
		.st2{fill:#ffffff;}
		.st3{fill:#FF4400;}
	}
</style>
<path class="st0" d="M143.7,89.4c-24.2,14.9-49.2,35.9-68.7,65.5c-1.8,2.8-3.6,5.5-5.2,8.3l9.8,9.8c9.1-12.8,21-27.4,36.3-42.1
	c13.3-12.9,26.3-23.2,38-31.3C150.4,96.2,147.1,92.8,143.7,89.4z M155.7,101.6c-9.2,6.8-18.7,14.5-28.4,23.3
	C108.2,142,93,159.3,81,175c4,4,8.1,8,12.1,12c11.3-13.6,24.4-27.9,39.5-42.6c11.9-11.5,23.6-21.8,34.8-30.9
	C163.4,109.5,159.5,105.5,155.7,101.6z M181.4,194.6c-2.1-0.9-4.5-0.5-6.1,1c-1.7,1.6-2.2,4-1.3,6.1c19.6,19.7,39.2,39.4,58.9,59.1
	c2.6-2.5,5.2-5.1,7.9-7.7C220.9,233.6,201.1,214.1,181.4,194.6z M386.6,375.8c-2.3-8.2-5.4-11.1-9.6-14c-4.2-2.9-15.5-8-18.6-9.1
	s-7.6-4.2-10.4-7c-2.8-2.8-72.8-72.8-72.8-72.8l-5.8,5.8l72.1,72.1c0.4,0.4,2,2.1,2.1,4.7c0.1,3-1.8,5-2.3,5.4
	c-0.2,0.2-0.4,0.4-0.6,0.5c-0.3,0.3-3,3-6.5,2.3c-1.3-0.3-2.3-0.9-2.9-1.4c-24.3-24.3-48.6-48.6-72.9-72.9c-2,2-4.1,4.1-6.1,6.2
	l74.8,74.8c0,0,3.1,3.2,7.1,12.4c1.1,2.5,2.2,5.5,2.2,5.5c0.5,1.2,0.5,1.3,0.8,2.1c1.2,2.9,2.3,5.2,2.5,5.7c1.1,2.1,4.5,7,10,9.7
	c7.6,3.8,17.4,2.3,17.4,2.3c2.3-0.4,7.9-1.6,12.8-6.2c4.5-4.2,6.2-8.9,6.6-10.1c1.1-3.3,1.1-6.1,1.1-7.6
	C387.8,381.9,387.5,379.1,386.6,375.8z M358.6,361.5c0,0,8-1,14.6,3.3c0.2,0.1,1.2,1,1.1,1.2c-0.2,0.3-3.2-1.9-7.4-3.1
	c-4.4-1.2-8.6-0.9-8.6-1.2C358.3,361.6,358.5,361.5,358.6,361.5z M353,401.9c-0.1,0.2-0.5,0.2-2.8-0.5c-2.1-0.8-3-2-3.4-2.7
	c-0.2-0.3-0.6-0.9-0.4-1.2c0.3-0.4,1.9,0.5,2.4,0.8c0.8,0.5,1.4,0.9,2.3,1.7C352.5,401.2,353.1,401.7,353,401.9z M377.1,387.4
	l-2.3,2.3c-0.3,0.3-0.6,0.8-0.7,1.1l-0.8,3.1c-0.1,0.4-0.5,0.7-0.8,0.8l-3.1,0.8c-0.4,0.1-0.9,0.4-1.1,0.7l-2.2,2.3
	c-0.3,0.3-0.8,0.4-1.1,0.3l-3.1-0.8c-0.4-0.1-1-0.1-1.3,0l-3.1,0.8c-0.4,0.1-0.9,0-1.1-0.3l-2.3-2.2c-0.3-0.3-0.8-0.6-1.1-0.7
	l-3.1-0.8c-0.4-0.1-0.7-0.5-0.8-0.8l-0.8-3.1c-0.1-0.4-0.4-0.9-0.7-1.1l-2.3-2.3c-0.3-0.3-0.4-0.8-0.3-1.1l0.8-3.1
	c0.1-0.4,0.1-1,0-1.3l-0.8-3.1c-0.1-0.4,0-0.9,0.3-1.1l2.3-2.3c0.3-0.3,0.6-0.8,0.7-1.1l0.8-3.1c0.1-0.4,0.5-0.7,0.8-0.8l3.1-0.8
	c0.4-0.1,0.9-0.4,1.1-0.7l2.3-2.3c0.3-0.3,0.8-0.4,1.1-0.3l3.1,0.8c0.4,0.1,1,0.1,1.3,0l3.1-0.8c0.4-0.1,0.9,0,1.1,0.3l2.3,2.2
	c0.3,0.3,0.8,0.6,1.1,0.7l3.1,0.8c0.4,0.1,0.7,0.5,0.8,0.8l0.8,3.1c0.1,0.4,0.4,0.9,0.7,1.1l2.3,2.3c0.3,0.3,0.4,0.8,0.3,1.1
	l-0.8,3.1c-0.1,0.4-0.1,1,0,1.3l0.8,3.1C377.5,386.7,377.4,387.2,377.1,387.4z M338.5,351.4c-23.6-23.6-47.3-47.2-70.9-70.7
	c-2.4,2.4-4.7,4.8-7.1,7.2c23.7,24,47.4,47.9,71.1,71.8c2.3,2,5.6,1.9,7.5,0.1C341.3,357.7,341.2,353.7,338.5,351.4z M179.4,189.3
	c20.9,20.9,41.7,41.8,62.6,62.7c2-2,4-4.1,6-6.1c-30.8-30.5-53.1-53-55.8-56.2c-2-2.3-2.7-4.9-2.7-4.9c-0.5-1.9-0.5-3.6-0.4-5
	c3.7-3.6,7.5-7.1,11.4-10.6c0.4-0.4,1.3-1.2,2.7-1.3c1.3-0.1,2.5,0.5,3.2,1c0,0,4,4.5,6.5,6.5c2.5,2,5.4-0.7,5.4-0.7l5.3-5.3
	l-53.4-53.5c-15,11.6-31.4,25.7-47.8,42.9c-10.3,10.7-19.3,21.2-27.2,31.2l53.9,54c0,0,3.4-3.4,6.1-6.1c2.7-2.7,0-4.4,0-4.4
	s-3.4-3.4-6.7-6.7c-3.3-3.3,0-5.4,0-5.4s4-4.4,10.5-11.2c1.3-0.2,3-0.3,4.9,0.2c2.6,0.7,4.3,2.1,4.9,2.7c3.2,2.7,25.7,25,56.2,55.8
	c2-2,4.1-4,6.1-6c-20.9-20.8-41.7-41.6-62.6-62.4C171.9,196.8,175.5,193.1,179.4,189.3z M134.2,169.8c0-8.7,7-15.7,15.7-15.7
	c8.7,0,15.7,7,15.7,15.7c0,8.7-7,15.7-15.7,15.7C141.2,185.5,134.2,178.5,134.2,169.8z M144.9,221.1c-0.2,0.1-1.2,1.1-1.1,2.6
	c0,1.5,1,2.4,1.1,2.5c2.2,2.2,4.4,4.4,6.5,6.5c0.2,0.2,1,1,1.1,2.4c0,1.4-0.9,2.4-1.1,2.5c-3.9-3.9-7.7-7.8-11.6-11.6
	c-0.2-0.2-1-1.3-1-2.8c0-1.4,0.8-2.3,1-2.6l60.4-60.4c0.3-0.2,1.3-1,2.8-1c1.7,0,2.8,1,3.1,1.2c4.1,4.1,8.2,8.2,12.4,12.4
	c-0.1,0.2-1.1,1.1-2.6,1.1c-1.5,0-2.5-1-2.7-1.1c-2.4-2.4-4.8-4.8-7.2-7.2c-0.2-0.3-1-1.2-2.3-1.4c-2-0.3-3.3,1.2-3.4,1.4
	C181.8,184.2,163.3,202.7,144.9,221.1z M425,154.9c-19.6-29.6-44.6-50.6-68.7-65.5c-3.4,3.4-6.7,6.7-10.1,10.1
	c11.6,8.1,24.6,18.4,38,31.3c15.3,14.8,27.2,29.4,36.3,42.1l9.8-9.8C428.6,160.5,426.9,157.7,425,154.9z M372.8,124.9
	c-9.7-8.8-19.3-16.5-28.4-23.3c-3.9,4-7.8,8-11.7,12c11.2,9.1,22.9,19.4,34.8,30.9c15.1,14.6,28.2,29,39.5,42.6c4-4,8.1-8,12.1-12
	C407,159.3,391.8,142,372.8,124.9z M324.4,195.6c-1.6-1.4-4-1.5-5.8-0.2c-45,45-90.1,90.1-135.1,135.1c-1.2,2.1-0.7,4.7,1,6.1
	c1.5,1.3,3.7,1.4,5.5,0.4l135.3-135.3C326.5,199.7,326.1,197.1,324.4,195.6z M324.4,195.6c-1.6-1.4-4-1.5-5.8-0.2
	c-45,45-90.1,90.1-135.1,135.1c-1.2,2.1-0.7,4.7,1,6.1c1.5,1.3,3.7,1.4,5.5,0.4l135.3-135.3C326.5,199.7,326.1,197.1,324.4,195.6z
	 M324.4,195.6c-1.6-1.4-4-1.5-5.8-0.2c-45,45-90.1,90.1-135.1,135.1c-1.2,2.1-0.7,4.7,1,6.1c1.5,1.3,3.7,1.4,5.5,0.4l135.3-135.3
	C326.5,199.7,326.1,197.1,324.4,195.6z M324.4,195.6c-1.6-1.4-4-1.5-5.8-0.2c-45,45-90.1,90.1-135.1,135.1c-1.2,2.1-0.7,4.7,1,6.1
	c1.5,1.3,3.7,1.4,5.5,0.4l135.3-135.3C326.5,199.7,326.1,197.1,324.4,195.6z M377.6,158.7c-16.5-17.2-32.8-31.3-47.8-42.9
	l-53.4,53.5l5.3,5.3c0,0,2.9,2.7,5.4,0.7c2.5-2,6.5-6.5,6.5-6.5c0.8-0.5,1.9-1.1,3.2-1c1.3,0.1,2.3,1,2.7,1.3
	c3.9,3.5,7.7,7.2,11.5,10.8c-0.1,1.5-0.4,3.4-1.2,5.5c0,0-1,2.5-2.9,4.7c-7.2,8.6-114.7,114.3-124,124.7c-0.6,0.7-2.8,2.8-7.2,7.1
	c-5.1,4.9-7.2,6.9-10.7,7.8c-1.1,0.3-2.9,0.9-6.1,0.2c-3.1-0.7-9.5-1.3-14.5-0.6c-1.4,0.2-3.4,0.6-5.9,1.7
	c-7.6,3.1-13.1,9.4-13.1,9.4c0,0-5.2,5.2-9,11.7c-1.8,3.1-2.6,5.4-4.1,9.9c0,0-1.1,3.2-0.5,8.4c0,0.1,0,0.2,0.1,0.4
	c0.5,0.6,2.1-0.1,2.7-0.3c3-1.2,22.3-13,25.3-14.8c0.5-0.3,1.4-0.8,2.6-0.8c1.8,0,3.1,1.3,3.9,2c5.9,6,8.6,11.1,8.6,11.1
	c1.5,2.9,3.4,7,5,12c0.4,1.5,0.7,3.8-0.1,6.2c-1.3,4.1-4.9,6-13.9,11.4c-2.4,1.4-6.3,3.8-11.1,6.8c-0.7,0.5-1.5,1.3-1.4,2.1
	c0.2,2,5.6,3,7.6,3.3c18.5,3.3,31.5-4.8,31.5-4.8c3.6-2.2,12.5-7.8,14.7-17c0.7-3.1,1-7.8,1.2-9.9c0.4-5.9-0.1-7,0.4-11.5
	c0.3-2.4,0.8-7,2.7-11.4c2.7-6.2,7.1-9.8,8.4-10.9c7.7-6.6,60.3-59.6,133.2-133.2c0.4-0.5,1.1-1.1,2-1.6c2.2-1.1,4.3-0.7,5-0.5h0
	c7.1,7.4,11.5,12.2,11.5,12.2s3.3,2.1,0,5.4c-3.3,3.3-6.7,6.7-6.7,6.7s-2.7,1.8,0,4.4c2.7,2.7,6.1,6.1,6.1,6.1l53.9-54
	C396.9,179.9,387.8,169.4,377.6,158.7z M138.9,338c-4.7,2.2-7.7,5-11,8.1c-2.4,2.2-4.2,4.3-5.4,5.7c-1.4,1.8-3,4.2-4.2,7.3
	c-0.6,1.4-1,2.8-1.4,4.1c-0.8-2.8,1.3-8,3.2-11.7c2.7-5.1,6.4-8.1,11.8-12.5c1.2-1,2.6-2,4.4-2.9c1.3-0.7,4.2-2.1,7.8-2.4
	c5.6-0.4,9.9,2.2,11.6,3.4c-1-0.5-2.6-1.1-4.5-1.4c0,0-1-0.1-2.1-0.2C144.3,335.5,138.9,338,138.9,338z M149.5,355.1
	c-1.8-2.3-3.7-4.9-3.5-5.1c0.3-0.3,3.4,2.6,5.5,4.8c3.9,4,12.2,12.6,13.5,24.5c0.3,2.9,0.2,6.4-0.3,6.4c-0.7,0.1-1.8-5.5-3.4-10.3
	C159.5,370.1,156.2,362.9,149.5,355.1z M177.2,395.7c-5.6,7.6-16.6,8.3-16.8,7.7c-0.1-0.4,5.8-1.5,12.1-6.8c4.1-3.4,6.7-7.1,8.3-9.8
	c0.1-0.2,0.3-0.4,0.4-0.3C181.5,386.7,179.9,392.1,177.2,395.7z M186.3,369.9c-0.3,0.1-1.2-1.4-2.1-2.7c-3.8-6.8-9.1-14.6-16.3-22.5
	c-3.6-4-7.2-7.4-10.6-10.3c-0.8-0.7-1.8-1.6-1.7-1.7c0.2-0.2,6.2,3.3,11.6,7.9c0,0,11.8,10,17.6,24.5
	C185.2,366,186.7,369.8,186.3,369.9z M191.3,340.1c-0.8,0.4-3,1.6-5.7,1.1c-0.3-0.1-1.6-0.3-3-1.2c-1.3-0.9-2.1-1.9-2.3-2.2
	c-0.3-0.4-1.1-1.5-1.3-2.9c0,0-0.4-2,0.9-4.3c2.3-4.3,121-121.3,141-141c3.7,3.7,7.2,7.2,10.5,10.5L191.3,340.1z M360.2,226.1
	c-3.9,3.9-7.7,7.8-11.6,11.6c-0.2-0.1-1.1-1.1-1.1-2.5c0-1.4,0.9-2.3,1.1-2.4c2.2-2.2,4.4-4.4,6.5-6.5c0.2-0.1,1.1-1.1,1.1-2.5
	c0-1.5-1-2.5-1.1-2.6c-18.5-18.5-36.9-36.9-55.4-55.4c-0.1-0.1-1.5-1.6-3.4-1.4c-1.3,0.2-2.1,1.1-2.3,1.4c-2.4,2.4-4.8,4.8-7.2,7.2
	c-0.1,0.2-1.1,1.2-2.7,1.1c-1.5,0-2.4-1-2.6-1.1c4.1-4.1,8.2-8.3,12.4-12.4c0.2-0.2,1.3-1.2,3.1-1.2c1.5,0,2.5,0.8,2.8,1l60.4,60.4
	c0.2,0.3,1,1.2,1,2.6C361.3,224.9,360.4,225.9,360.2,226.1z M350.1,185.5c-8.7,0-15.7-7-15.7-15.7c0-8.7,7-15.7,15.7-15.7
	c8.7,0,15.7,7,15.7,15.7C365.8,178.5,358.8,185.5,350.1,185.5z M318.6,195.4c-45,45-90.1,90.1-135.1,135.1c-1.2,2.1-0.7,4.7,1,6.1
	c1.5,1.3,3.7,1.4,5.5,0.4l135.3-135.3c1.3-2,0.9-4.6-0.8-6.1C322.8,194.2,320.4,194.1,318.6,195.4z M324.4,195.6
	c-1.6-1.4-4-1.5-5.8-0.2c-45,45-90.1,90.1-135.1,135.1c-1.2,2.1-0.7,4.7,1,6.1c1.5,1.3,3.7,1.4,5.5,0.4l135.3-135.3
	C326.5,199.7,326.1,197.1,324.4,195.6z M324.4,195.6c-1.6-1.4-4-1.5-5.8-0.2c-45,45-90.1,90.1-135.1,135.1c-1.2,2.1-0.7,4.7,1,6.1
	c1.5,1.3,3.7,1.4,5.5,0.4l135.3-135.3C326.5,199.7,326.1,197.1,324.4,195.6z M324.4,195.6c-1.6-1.4-4-1.5-5.8-0.2
	c-45,45-90.1,90.1-135.1,135.1c-1.2,2.1-0.7,4.7,1,6.1c1.5,1.3,3.7,1.4,5.5,0.4l135.3-135.3C326.5,199.7,326.1,197.1,324.4,195.6z
	 M324.4,195.6c-1.6-1.4-4-1.5-5.8-0.2c-45,45-90.1,90.1-135.1,135.1c-1.2,2.1-0.7,4.7,1,6.1c1.5,1.3,3.7,1.4,5.5,0.4l135.3-135.3
	C326.5,199.7,326.1,197.1,324.4,195.6z"/>
<path class="st1" d="M250,470.2L250,470.2c-121.6,0-220.2-98.6-220.2-220.2v0c0-121.6,98.6-220.2,220.2-220.2h0
	c121.6,0,220.2,98.6,220.2,220.2v0C470.2,371.6,371.6,470.2,250,470.2z"/>
<path class="st2" d="M499,250c0-11.1-0.7-22-2.1-32.7l-16.4-0.2l15.7-4.8c-1.7-11-4-21.8-7.1-32.3l-16.3,2.3l14.9-7.2
	c-3.3-10.6-7.3-20.9-12-30.8l-15.9,4.8l13.7-9.4c-4.9-9.9-10.4-19.5-16.6-28.6l-15,7.2l12.1-11.4c-6.3-9-13.3-17.6-20.7-25.7
	l-13.7,9.5l10.3-13.2c-1.2-1.3-2.5-2.6-3.8-3.8c-6.5-6.5-13.4-12.7-20.6-18.4L393.3,67l8.2-14.7c-8.7-6.7-17.9-12.8-27.4-18.3
	l-10.4,13.3l5.9-15.9c-9.6-5.3-19.6-9.9-29.9-13.9l-8.3,14.8l3.4-16.7c-10.3-3.7-20.8-6.8-31.7-9.1l-5.9,16L298,5.6
	c-10.7-2.1-21.6-3.5-32.7-4.2l-3.4,16.8l-1.8-17C256.7,1.1,253.4,1,250,1c-7.7,0-15.3,0.3-22.9,1l-0.8,17.1v0.1l0-0.1l-4.4-16.6
	c-11,1.2-21.9,3.2-32.4,5.8l1.8,17l0,0.2l-0.1-0.2l-6.8-15.7c-10.7,2.9-21.1,6.5-31.1,10.7l4.4,16.6l0.1,0.2l-0.1-0.2l-9.2-14.5
	c-10.1,4.5-19.8,9.6-29.1,15.4l6.9,15.7l0.1,0.2l-0.2-0.2l-11.3-12.9c-9.2,6-18.1,12.5-26.4,19.7L97.6,75l0.1,0.2L97.6,75L84.5,64
	c-3.6,3.2-7.1,6.5-10.5,10c-4.3,4.3-8.5,8.8-12.5,13.5l11.3,12.9l0.2,0.2l-0.2-0.1L58,91.5c-7,8.4-13.4,17.4-19.2,26.7l13.1,11
	l0.2,0.2l-0.3-0.1L36,122.7c-5.6,9.4-10.6,19.2-14.9,29.3l14.6,8.9l0.3,0.2l-0.3-0.1L19,156.9c-4.1,10.1-7.5,20.5-10.2,31.3
	l15.8,6.6l0.3,0.1l-0.3,0l-17.1-1.5c-2.5,10.6-4.3,21.4-5.3,32.5l16.6,4.1l0.3,0.1l-0.3,0l-17.1,1.1C1.2,237.3,1,243.6,1,250
	c0,4.7,0.1,9.4,0.4,14l17.1,1.5l0.2,0l-0.2,0l-16.7,3.7c0.8,11.1,2.4,22,4.7,32.6l17.1-1.1l0.2,0l-0.2,0.1l-16,6.2
	c2.5,10.8,5.7,21.3,9.6,31.5l16.7-3.7l0.2,0l-0.2,0.1l-14.8,8.6c4.1,10.2,8.9,20.1,14.4,29.6l16-6.2l0.1-0.1l-0.1,0.1l-13.3,10.7
	c5.7,9.5,11.9,18.5,18.7,27.1l14.8-8.6l0,0l0,0l-11.5,12.7c7,8.5,14.6,16.5,22.6,23.9l13.3-10.8l-9.5,14.3c8.2,7.3,16.9,14,26,20.2
	l11.5-12.6l-7.2,15.5c9.2,5.9,18.8,11.3,28.8,16l9.4-14.2l-4.7,16.4c10,4.5,20.3,8.3,30.9,11.4l7.1-15.4l-2.1,16.8
	c10.5,2.9,21.3,5.1,32.3,6.5l4.6-16.2l0.5,16.8c9.2,1,18.6,1.6,28.1,1.6c1.6,0,3.2,0,4.8-0.1l2.1-16.6l3,16.5
	c11.2-0.4,22.1-1.6,32.8-3.5l-0.5-16.7l5.5,15.8c10.9-2.1,21.6-4.9,31.9-8.5l-3-16.4l7.8,14.7c10.4-3.8,20.5-8.2,30.3-13.3
	l-5.5-15.7l9.9,13.3c9.7-5.3,19-11.2,27.9-17.7l-7.7-14.6l11.8,11.6c8.8-6.7,17.1-14,24.9-21.8l-9.8-13.2l13.3,9.6
	c7.7-7.9,14.8-16.4,21.3-25.3l-11.7-11.5l14.6,7.4c6.3-9,12.1-18.4,17.2-28.2l-13.3-9.6l15.6,5.1c4.9-9.8,9.1-20,12.7-30.5
	l-14.6-7.4l16.2,2.7c3.3-10.4,5.9-21.1,7.9-32.1l-15.6-5.1l16.4,0.2c1.7-10.8,2.6-21.8,2.9-32.9l-16.1-2.7l16.2-2.3V250z M250,470.5
	c-120.9,0-219-97.3-220.4-217.8h440.9C469,373.2,370.9,470.5,250,470.5z M29.6,247.4C31,126.8,129.1,29.5,250,29.5
	c120.9,0,219,97.3,220.4,217.8H29.6z"/>
<g id="Schrift">
	<path class="st3" d="M75.5,201.8H69l-4.8,23.7l-4-23.7c-1.2-0.4-2.4-0.6-3.6-0.6c-1.5,0-3,0.3-4.4,0.9c-1.4,0.6-2.7,1.5-3.8,2.5
		c-1.1,1-2,2.2-2.6,3.4c-0.7,1.3-1,2.6-1,3.9c0,1.9,0.5,3.3,1.6,4.1s2.5,1.2,4.2,1.2c-0.1-0.2-0.2-0.4-0.4-0.6
		c-0.2-0.2-0.4-0.5-0.5-0.9s-0.3-0.9-0.5-1.5c-0.1-0.6-0.2-1.4-0.2-2.2c0-1.9,0.5-3.5,1.4-4.9c0.9-1.3,2.2-2.3,3.9-3l-4.8,30.8H53
		l3.2-20.2l3.4,20.2h6.2l4.2-20.2l1.4,20.2h6.5L75.5,201.8z M86.7,203.9c-0.7-0.7-1.5-1.1-2.5-1.1s-1.8,0.3-2.5,1.1
		c-0.7,0.7-1,1.5-1,2.5s0.3,1.8,1,2.5c0.7,0.7,1.5,1,2.5,1s1.8-0.3,2.5-1s1.1-1.5,1.1-2.5S87.4,204.6,86.7,203.9z M149.1,213.7
		c-0.7-1.5-1.8-2.2-3.3-2.2c-0.8,0-1.3,0.2-1.7,0.5c-0.4,0.4-0.6,0.8-0.6,1.4c0,0.3,0,0.6,0.2,0.9c0.1,0.3,0.2,0.6,0.5,0.9
		c0.2,0.3,0.4,0.5,0.7,0.7c0.3,0.2,0.5,0.3,0.9,0.3c0.2,0,0.4,0,0.8-0.1s0.5-0.2,0.6-0.3c0.2,1.2,0.4,2.5,0.4,3.9
		c0,1.3-0.1,2.5-0.3,3.9c-0.2,1.3-0.5,2.5-0.9,3.6c-0.4,1.1-0.9,2-1.6,2.7c-0.6,0.7-1.4,1-2.2,1c-0.7,0-1.2-0.2-1.5-0.7
		c-0.3-0.5-0.5-1.3-0.5-2.4v-15.3h-6.5v14.4c-0.1,1.1-0.4,2.1-0.9,2.8c-0.5,0.8-1.1,1.1-1.9,1.1c-0.6,0-1.1-0.2-1.4-0.7
		c-0.3-0.5-0.5-1.3-0.5-2.4v-15.3H123v14.4h-0.3c-0.1,1.1-0.4,2.1-1,2.8c-0.6,0.8-1.3,1.1-2.2,1.1s-1.5-0.2-1.8-0.6
		c-0.3-0.4-0.5-1.2-0.5-2.5v-13.5h2.7v-1.8h-2.7v-7.1l-6.5,0.9v6.2h-1.4v1.8h1.4v12.6h-0.2c-0.4,0.6-0.8,1.2-1.3,1.8
		c-0.5,0.6-0.9,1-1.5,1.4c-0.5,0.4-1.2,0.7-1.8,1c-0.7,0.2-1.5,0.3-2.4,0.3c-1.6,0-2.7-0.4-3.4-1.3c-0.6-0.9-1-2.3-1-4.3
		c1.1-0.1,2.2-0.3,3.3-0.6c1.1-0.4,2-0.9,2.8-1.6c0.8-0.7,1.5-1.6,2-2.6c0.5-1,0.7-2.2,0.7-3.5c0-0.2,0-0.6-0.1-1.2
		c-0.1-0.6-0.3-1.2-0.7-1.8c-0.4-0.6-0.9-1.1-1.7-1.6c-0.8-0.4-1.9-0.7-3.3-0.7c-1.9,0-3.5,0.4-4.7,1.3c-1.2,0.8-2.2,1.9-2.9,3.1
		c-0.7,1.3-1.2,2.6-1.5,4.1c-0.3,1.5-0.4,2.9-0.4,4.2c0,1.3,0.1,2.5,0.3,3.6c-0.2,0.5-0.4,0.9-0.7,1.2c-0.6,0.8-1.3,1.1-2.2,1.1
		s-1.5-0.2-1.8-0.6c-0.3-0.4-0.5-1.2-0.5-2.5v-15.3h-6.5v15.8c0,2.1,0.5,3.8,1.4,5.1c0.9,1.3,2.5,1.9,4.9,1.9c0.6,0,1.3-0.1,2.1-0.3
		c0.8-0.2,1.5-0.6,2.3-1.1c0.8-0.6,1.4-1.4,2-2.5c0,0,0,0,0-0.1c0.3,0.6,0.7,1.1,1.2,1.6c0.8,0.8,1.7,1.4,2.8,1.8
		c1.1,0.4,2.3,0.6,3.5,0.6c1.5,0,2.9-0.2,4-0.7c1.1-0.5,2.1-1.1,3-1.9c0.9-0.8,1.6-1.7,2.2-2.7c0.1-0.2,0.2-0.3,0.3-0.5
		c0.1,1.5,0.6,2.8,1.3,3.8c0.9,1.3,2.5,1.9,4.9,1.9c0.6,0,1.3-0.1,2.1-0.3c0.8-0.2,1.5-0.6,2.3-1.1c0.8-0.6,1.4-1.4,2-2.5
		c0,0,0-0.1,0.1-0.2c0.2,0.8,0.6,1.6,1,2.2c1,1.3,2.5,1.9,4.6,1.9c0.5,0,0.9,0,1.4-0.1c0.5-0.1,1-0.2,1.5-0.5s1-0.7,1.5-1.2
		c0.5-0.5,0.9-1.2,1.3-2c0.5,1.2,1.3,2.1,2.3,2.8c1,0.7,2.3,1,3.8,1c1.8,0,3.2-0.5,4.4-1.4c1.2-0.9,2.1-2.2,2.9-3.6
		c0.7-1.5,1.2-3.1,1.5-4.9s0.5-3.5,0.5-5.3C150.2,217.3,149.8,215.2,149.1,213.7z M99.3,220.2c0.2-1.1,0.4-2.1,0.8-2.9
		c0.3-0.8,0.7-1.5,1.1-2c0.4-0.5,0.9-0.7,1.4-0.7c0.4,0,0.8,0.2,1.2,0.7c0.4,0.4,0.5,1.2,0.5,2.2c0,0.8-0.1,1.6-0.4,2.3
		c-0.3,0.7-0.6,1.4-1.1,1.9c-0.5,0.5-1.1,1-1.7,1.3c-0.7,0.3-1.4,0.5-2.1,0.6C99,222.4,99.2,221.3,99.3,220.2z M284.5,230.4
		c-0.1,0.1-0.3,0.2-0.5,0.2c-0.2,0.1-0.5,0.1-0.8,0.1c-0.9,0-1.5-0.2-1.8-0.6c-0.4-0.4-0.5-1.2-0.5-2.5v-13.5h2.7v-1.8h-2.7v-7.1
		l-6.5,0.9v6.2H273v1.8h1.4v12.6h-1.9c-0.1,1.1-0.4,2.1-1,2.8c-0.6,0.8-1.3,1.1-2.2,1.1s-1.5-0.2-1.8-0.6c-0.3-0.4-0.5-1.2-0.5-2.5
		v-13.5h2.7v-1.8H267v-7.1l-6.5,0.9v6.2h-1.4v1.8h1.4v12.6h-0.1c-0.1,1.1-0.4,2.1-1,2.8c-0.6,0.8-1.3,1.1-2.2,1.1
		c-0.9,0-1.5-0.2-1.8-0.6c-0.3-0.4-0.5-1.2-0.5-2.5v-15.3h-6.5v2.2c-0.2-0.5-0.4-1-0.8-1.3c-0.3-0.3-0.7-0.6-1.1-0.7
		c-0.4-0.2-0.8-0.3-1.2-0.3c-0.4,0-0.8-0.1-1.2-0.1c-1.6,0-2.9,0.4-4,1.2c-1.1,0.8-2,1.8-2.6,3c-0.7,1.2-1.2,2.6-1.5,4
		c-0.3,1.5-0.5,2.9-0.5,4.3c0,1.3,0.1,2.4,0.3,3.5c-0.2,0.6-0.4,1.1-0.8,1.5c-0.6,0.8-1.3,1.1-2.2,1.1s-1.5-0.2-1.8-0.6
		c-0.3-0.4-0.5-1.2-0.5-2.5v-13.5h2.7v-1.8h-2.7v-7.1l-6.5,0.9v6.2h-1.4v1.8h1.4V227c-0.7,0.7-1.5,1.4-2.5,2v-0.3
		c0-1.1-0.1-2.1-0.2-3c-0.1-0.9-0.3-1.9-0.6-3.2c-0.3-1.2-0.7-2.7-1.2-4.5c-0.5-1.8-1.1-4.2-1.9-7.1l-6.5,0.9
		c-0.2,2.2-0.7,4.4-1.2,6.6c-0.6,2.2-1.3,4.4-2.2,6.7c-0.5,0.2-0.9,0.6-1.2,1.2c-0.3,0.6-0.5,1.3-0.5,2.1c0,0.5,0.1,1,0.2,1.6
		c-0.2,0.2-0.4,0.3-0.6,0.4c-0.3,0.2-0.8,0.2-1.3,0.2c-0.9,0-1.5-0.2-1.8-0.6s-0.5-0.9-0.5-1.5c0-0.2,0-0.5,0-0.9
		c0-0.3,0-0.7,0.1-1.1c0-0.4,0-0.8,0.1-1.2c0-0.4,0-0.8,0-1c0-1.1-0.2-2-0.5-2.8s-0.8-1.4-1.4-1.8c-0.6-0.5-1.3-0.8-2-1
		c-0.8-0.2-1.6-0.3-2.4-0.3h-0.6c-0.2,0-0.4,0-0.6,0l7.6-6.2h-4.5l-7.2,6.8v-15.8l-6.5,0.9v11.2c0-0.2-0.1-0.5-0.2-0.7
		c-0.2-0.5-0.5-0.9-0.8-1.3c-0.3-0.4-0.8-0.7-1.2-0.9c-0.5-0.2-1-0.4-1.5-0.4c-1,0-1.8,0.3-2.7,0.9c-0.8,0.6-1.5,1.3-2.2,2.1v-2.8
		h-6.5v14.4H169c-0.4,0.6-0.9,1.2-1.3,1.8c-0.5,0.6-0.9,1-1.5,1.4c-0.5,0.4-1.1,0.7-1.8,1s-1.5,0.3-2.4,0.3c-1.6,0-2.8-0.4-3.4-1.3
		c-0.6-0.9-1-2.3-1-4.3c1.1-0.1,2.2-0.3,3.3-0.6c1.1-0.4,2-0.9,2.8-1.6c0.8-0.7,1.5-1.6,2-2.6c0.5-1,0.7-2.2,0.7-3.5
		c0-0.2,0-0.6-0.1-1.2c-0.1-0.6-0.3-1.2-0.7-1.8c-0.4-0.6-1-1.1-1.7-1.6c-0.8-0.4-1.9-0.7-3.3-0.7c-1.9,0-3.5,0.4-4.7,1.3
		c-1.2,0.8-2.2,1.9-2.9,3.1c-0.7,1.3-1.2,2.6-1.5,4.1c-0.3,1.5-0.4,2.9-0.4,4.2c0,1.8,0.2,3.4,0.7,4.7c0.4,1.3,1,2.4,1.8,3.2
		c0.8,0.8,1.7,1.4,2.8,1.8c1.1,0.4,2.3,0.6,3.5,0.6c1.5,0,2.9-0.2,4-0.7c1.1-0.5,2.1-1.1,3-1.9c0.9-0.8,1.6-1.7,2.2-2.7
		c0.1-0.2,0.2-0.3,0.3-0.5v5.5h6.5v-17.1c0.5-0.5,0.9-0.9,1.4-1.3c0.4-0.3,0.9-0.5,1.3-0.5c0.4,0,0.7,0.2,0.9,0.5
		c0.2,0.3,0.3,0.6,0.5,1c0.1,0.3,0.4,0.7,0.6,1c0.3,0.3,0.8,0.5,1.4,0.5c0.9,0,1.6-0.3,2-0.8c0.3-0.4,0.5-0.8,0.5-1.2v18.1h6.5v-10
		c0.2-0.8,0.6-1.4,1.1-1.9c0.5-0.5,1.2-0.8,2.1-0.8c1,0,1.6,0.3,1.9,0.9c0.3,0.6,0.4,1.5,0.4,2.5c0,0.5,0,1.1,0,1.8
		c0,0.7,0,1.2,0,1.5c0,0.8,0.1,1.6,0.4,2.4c0.2,0.8,0.6,1.4,1.2,2c0.5,0.6,1.2,1,2,1.3c0.8,0.3,1.8,0.5,2.9,0.5
		c0.7,0,1.4-0.1,2.2-0.3c0.7-0.2,1.4-0.6,2-1.2c0.3-0.3,0.6-0.7,0.9-1.2c0.1,0.1,0.2,0.3,0.4,0.4c0.7,0.6,1.5,1.2,2.5,1.6
		c1,0.4,2.1,0.6,3.5,0.6c1.1,0,2.2-0.2,3.4-0.6c1.2-0.4,2.1-1,2.9-2c0.9-0.6,1.9-1.4,2.9-2.3c0.3-0.3,0.6-0.6,0.9-0.9
		c0.2,1.5,0.6,2.8,1.3,3.8c0.9,1.3,2.5,1.9,4.8,1.9c0.6,0,1.3-0.1,2.1-0.3c0.8-0.2,1.5-0.6,2.3-1.1c0.8-0.6,1.4-1.4,2-2.5
		c0-0.1,0.1-0.1,0.1-0.2c0.4,0.7,0.8,1.3,1.3,1.8c0.8,0.8,1.6,1.4,2.5,1.8c0.9,0.4,1.9,0.5,2.8,0.5c0.8,0,1.5-0.1,2.1-0.4
		c0.6-0.2,1.2-0.6,1.6-0.9c0.5-0.4,0.9-0.8,1.2-1.3c0.3-0.5,0.6-1,0.9-1.5c0.3,1.3,0.9,2.3,1.7,3c0.8,0.7,2,1.1,3.6,1.1
		c0.6,0,1.3-0.1,2.1-0.3c0.8-0.2,1.5-0.6,2.3-1.1c0.7-0.6,1.4-1.3,1.9-2.3c0.2,0.7,0.5,1.3,0.9,1.8c0.9,1.3,2.5,1.9,4.8,1.9
		c0.6,0,1.3-0.1,2.1-0.3c0.8-0.2,1.5-0.6,2.3-1.1c0.8-0.6,1.4-1.4,2-2.5c0.6-1.1,1-2.5,1.2-4.2v1.1c0,2.1,0.5,3.8,1.4,5.1
		c0.9,1.3,2.5,1.9,4.9,1.9c1.1,0,2-0.3,2.8-0.9c0.7-0.6,1.1-1.6,1.1-2.8v-0.5C284.5,230.7,284.5,230.5,284.5,230.4z M158,220.2
		c0.2-1.1,0.5-2.1,0.8-2.9c0.3-0.8,0.7-1.5,1.1-2c0.4-0.5,0.9-0.7,1.4-0.7c0.4,0,0.8,0.2,1.2,0.7c0.4,0.4,0.5,1.2,0.5,2.2
		c0,0.8-0.1,1.6-0.4,2.3c-0.3,0.7-0.6,1.4-1.1,1.9c-0.5,0.5-1,1-1.7,1.3c-0.7,0.3-1.4,0.5-2.1,0.6
		C157.7,222.4,157.8,221.3,158,220.2z M214.2,230.9c-0.6,0.5-1.4,0.7-2.2,0.7c-1,0-1.7-0.3-2.3-0.8c-0.3-0.3-0.5-0.6-0.7-1
		c-0.2-0.4-0.3-0.8-0.5-1.3c0.2,0.2,0.4,0.4,0.6,0.5c0,0,0,0,0.1,0v0c0.2,0.1,0.5,0.1,0.7,0.1c0.5,0,0.9-0.2,1.2-0.6
		c0.3-0.4,0.4-0.8,0.4-1.2c0-0.5-0.1-0.9-0.4-1.2c-0.3-0.3-0.6-0.5-0.9-0.7c0.5-1.4,0.9-2.8,1.4-4.2c0.4-1.3,0.8-2.7,1.1-4.2
		c0.5,1.7,0.8,3.1,1.2,4.2c0.3,1.1,0.6,2.1,0.8,2.9c0.2,0.8,0.3,1.5,0.4,2.2c0.1,0.7,0.1,1.4,0.1,2.2
		C215.2,229.6,214.8,230.4,214.2,230.9z M248.5,226.8c0,0.7-0.1,1.2-0.3,1.7c-0.2,0.5-0.4,0.9-0.7,1.2c-0.3,0.3-0.6,0.6-0.9,0.7
		c-0.4,0.2-0.7,0.2-1,0.2c-0.3,0-0.6,0-1-0.1c-0.4-0.1-0.8-0.3-1.1-0.7c-0.3-0.4-0.6-1-0.9-1.9c-0.2-0.9-0.4-2.1-0.4-3.7
		c0-1,0.1-2,0.2-3.1c0.2-1.1,0.4-2.1,0.7-3c0.3-0.9,0.7-1.7,1.3-2.3c0.5-0.6,1.2-0.9,1.9-0.9c0.4,0,0.7,0.1,0.9,0.2
		c0.3,0.1,0.5,0.3,0.7,0.5c0.2,0.2,0.3,0.4,0.4,0.6c0.1,0.2,0.2,0.4,0.2,0.5V226.8z M344.3,214.9c-0.1,0.2-0.2,0.4-0.3,0.7
		s-0.3,0.5-0.4,0.8c-0.2,0.3-0.4,0.5-0.6,0.8c-0.2,0.2-0.5,0.4-0.7,0.6c-0.5-2-1.4-3.4-2.5-4.3c-1.2-0.9-2.7-1.4-4.5-1.4
		c-1.9,0-3.5,0.4-4.8,1.3c-1.2,0.8-2.2,1.9-2.9,3.2c-0.7,1.3-1.2,2.7-1.5,4.2c-0.3,1.5-0.4,2.9-0.4,4.1c0,1.9,0.2,3.5,0.7,4.8
		c0.5,1.3,1.1,2.3,1.9,3.1c0.8,0.8,1.7,1.4,2.7,1.7c1,0.4,2.1,0.5,3.2,0.5c1.6,0,3-0.3,4.1-1c1.1-0.6,2-1.5,2.7-2.6
		c0.7-1.1,1.2-2.4,1.5-4s0.5-3.1,0.5-4.9c0-0.3,0-0.7,0-1c0-0.3,0-0.6-0.1-0.9c0.5-0.4,0.9-0.8,1.2-1.3c0.3-0.5,0.6-1,0.8-1.5
		c0.2-0.5,0.4-1,0.6-1.6c0.2-0.5,0.3-1,0.4-1.5H344.3z M339,222.3c0,1.2-0.1,2.4-0.2,3.4c-0.1,1-0.4,2-0.7,2.7
		c-0.3,0.8-0.7,1.4-1.1,1.8c-0.5,0.4-1,0.7-1.6,0.7c-0.3,0-0.7-0.1-1-0.2c-0.4-0.2-0.7-0.5-1-0.9c-0.3-0.5-0.5-1.1-0.8-1.9
		c-0.2-0.8-0.3-1.9-0.3-3.3c0-1,0.1-2.1,0.2-3.3c0.1-1.1,0.3-2.2,0.6-3.1c0.3-0.9,0.7-1.7,1.1-2.3c0.5-0.6,1-0.9,1.7-0.9
		c0.3,0,0.7,0.2,1.2,0.4c0.5,0.3,0.9,0.9,1.2,1.9c-0.8,0.3-1.2,0.9-1.2,1.9c0,1.5,0.6,2.4,1.8,2.7V222.3z M364.3,218.9
		c-1.1-1.5-2.7-2.5-4.8-3.2c1-0.5,1.8-1.3,2.3-2.3c0.5-1,0.8-2.2,0.8-3.5c0-2.1-0.7-3.7-2-4.8c-1.3-1.1-3.2-1.6-5.5-1.6
		c-0.8,0-1.6,0.1-2.4,0.3c-0.8,0.2-1.5,0.5-2.2,1.1c-0.6,0.5-1.2,1.3-1.6,2.3c-0.4,1-0.6,2.3-0.6,4v35l6.5-1.6V211
		c0-0.7,0.1-1.4,0.2-1.8c0.1-0.5,0.3-0.9,0.6-1.1c0.2-0.3,0.5-0.5,0.8-0.6c0.3-0.1,0.6-0.2,0.9-0.2c0.5,0,1.1,0.2,1.6,0.6
		c0.5,0.4,0.8,1.2,0.8,2.3c0,1.2-0.3,2.2-1,2.8c-0.6,0.6-1.3,1.2-2,1.5l-0.2,2.6c1.8,0.4,3.1,1.2,3.8,2.5c0.7,1.2,1,2.9,1,5.1
		c0,1-0.1,1.9-0.2,2.8c-0.1,0.9-0.3,1.7-0.6,2.4c-0.3,0.7-0.6,1.2-1,1.6c-0.4,0.4-0.9,0.6-1.5,0.6v2.7c0.2,0,0.5,0,0.7,0.1
		c0.3,0,0.5,0,0.7,0c0.7,0,1.5-0.2,2.2-0.6c0.8-0.4,1.5-1,2.1-1.9c0.7-0.8,1.2-1.9,1.6-3.1c0.4-1.2,0.6-2.7,0.6-4.4
		C365.9,222.4,365.4,220.4,364.3,218.9z M413.6,218.2c-0.4-1.3-0.9-2.5-1.5-3.4c-0.7-0.9-1.4-1.6-2.3-2c-0.9-0.5-1.9-0.7-2.9-0.7
		c-0.5,0-1,0.1-1.5,0.2c-0.5,0.2-1.2,0.5-2,1.1l0-10.1l-6.4,0.9l0,22.5h-0.2c-0.4,0.6-0.8,1.2-1.3,1.8c-0.5,0.6-0.9,1-1.5,1.4
		c-0.5,0.4-1.2,0.7-1.8,1c-0.7,0.2-1.5,0.3-2.4,0.3c-1.6,0-2.7-0.4-3.4-1.3c-0.6-0.9-1-2.3-1-4.3c1.1-0.1,2.2-0.3,3.3-0.6
		c1.1-0.4,2-0.9,2.8-1.6c0.8-0.7,1.5-1.6,2-2.6c0.5-1,0.7-2.2,0.7-3.5c0-0.2,0-0.6-0.1-1.2c-0.1-0.6-0.3-1.2-0.7-1.8
		c-0.4-0.6-1-1.1-1.7-1.6c-0.8-0.4-1.9-0.7-3.3-0.7c-1.9,0-3.4,0.4-4.7,1.3c-1.2,0.8-2.2,1.9-2.9,3.1c-0.7,1.3-1.2,2.6-1.5,4.1
		c-0.3,1.5-0.4,2.9-0.4,4.2c0,1.3,0.1,2.5,0.3,3.6c-0.2,0.5-0.4,0.9-0.7,1.2c-0.6,0.8-1.3,1.1-2.2,1.1s-1.5-0.2-1.8-0.6
		c-0.3-0.4-0.5-1.2-0.5-2.5v-24.3l-6.5,0.9v23.9c0,2.1,0.5,3.8,1.4,5.1c0.9,1.3,2.5,1.9,4.8,1.9c0.6,0,1.3-0.1,2.1-0.3
		c0.8-0.2,1.5-0.6,2.3-1.1c0.8-0.6,1.4-1.4,2-2.5c0,0,0,0,0-0.1c0.3,0.6,0.7,1.1,1.1,1.6c0.8,0.8,1.7,1.4,2.8,1.8
		c1.1,0.4,2.3,0.6,3.5,0.6c1.5,0,2.9-0.2,4-0.7c1.1-0.5,2.1-1.1,3-1.9c0.8-0.8,1.6-1.7,2.2-2.7c0.1-0.1,0.2-0.3,0.2-0.4
		c0.2,1.5,0.8,2.8,1.7,3.8c1.2,1.3,3.1,1.9,5.6,1.9c2,0,3.7-0.4,4.9-1.2c1.3-0.8,2.3-1.8,3-3c0.7-1.2,1.2-2.5,1.5-4
		c0.3-1.4,0.4-2.8,0.4-4.1C414.1,221.1,414,219.6,413.6,218.2z M385.6,220.2c0.2-1.1,0.5-2.1,0.8-2.9c0.3-0.8,0.7-1.5,1.1-2
		c0.4-0.5,0.9-0.7,1.4-0.7c0.4,0,0.8,0.2,1.2,0.7c0.4,0.4,0.5,1.2,0.5,2.2c0,0.8-0.1,1.6-0.4,2.3c-0.3,0.7-0.6,1.4-1.1,1.9
		s-1,1-1.7,1.3c-0.7,0.3-1.4,0.5-2.1,0.6C385.3,222.4,385.4,221.3,385.6,220.2z M409.3,225.8c-0.1,0.9-0.3,1.7-0.6,2.4
		c-0.3,0.7-0.7,1.3-1.2,1.8c-0.5,0.5-1.2,0.7-2,0.7c-0.7,0-1.2-0.2-1.6-0.6c-0.4-0.4-0.6-1.1-0.6-2v-11.9c0.2-0.3,0.6-0.5,1.1-0.6
		c0.5-0.1,0.9-0.2,1.3-0.2c1.2,0,2.1,0.7,2.8,2.1c0.7,1.4,1,3.3,1,5.7C409.5,224.1,409.4,225,409.3,225.8z M433.1,226.8
		c-0.4,0.6-0.8,1.2-1.3,1.8c-0.5,0.6-1,1-1.5,1.4c-0.5,0.4-1.2,0.7-1.8,1c-0.7,0.2-1.5,0.3-2.4,0.3c-1.6,0-2.8-0.4-3.4-1.3
		c-0.7-0.9-1-2.3-1-4.3c1.1-0.1,2.2-0.3,3.2-0.6c1.1-0.4,2-0.9,2.8-1.6c0.8-0.7,1.5-1.6,2-2.6c0.5-1,0.7-2.2,0.7-3.5
		c0-0.2,0-0.6-0.1-1.2c-0.1-0.6-0.3-1.2-0.7-1.8c-0.4-0.6-1-1.1-1.7-1.6c-0.8-0.4-1.9-0.7-3.3-0.7c-1.9,0-3.4,0.4-4.7,1.3
		c-1.2,0.8-2.2,1.9-2.9,3.1c-0.7,1.3-1.2,2.6-1.5,4.1c-0.3,1.5-0.4,2.9-0.4,4.2c0,1.8,0.2,3.4,0.7,4.7c0.4,1.3,1,2.4,1.8,3.2
		c0.8,0.8,1.7,1.4,2.8,1.8c1.1,0.4,2.3,0.6,3.5,0.6c1.5,0,2.9-0.2,4-0.7c1.1-0.5,2.1-1.1,3-1.9c0.9-0.8,1.6-1.7,2.2-2.7
		c0.6-1,1.1-2,1.5-3H433.1z M422.1,220.2c0.2-1.1,0.5-2.1,0.8-2.9c0.3-0.8,0.7-1.5,1.1-2c0.4-0.5,0.9-0.7,1.4-0.7
		c0.4,0,0.8,0.2,1.2,0.7c0.3,0.4,0.5,1.2,0.5,2.2c0,0.8-0.1,1.6-0.4,2.3c-0.3,0.7-0.6,1.4-1.1,1.9s-1,1-1.7,1.3
		c-0.7,0.3-1.4,0.5-2.1,0.6C421.8,222.4,421.9,221.3,422.1,220.2z M454.7,230.8c-1,0-1.6-0.3-1.9-1c-0.3-0.6-0.5-1.6-0.5-2.8
		c0-0.4,0-0.9,0-1.5c0-0.6,0-1.1,0.1-1.8c0-0.6,0.1-1.2,0.1-1.8c0-0.6,0-1.1,0-1.6c0-1.5-0.2-2.8-0.5-3.8c-0.3-1-0.8-1.9-1.4-2.5
		c-0.6-0.6-1.3-1.1-2-1.3c-0.8-0.3-1.6-0.4-2.5-0.4c-0.7,0-1.5,0.1-2.3,0.4c-0.9,0.3-1.7,1-2.4,2.1v-2.3h-6.5v22.5h6.5v-14.4
		c0.1-1.1,0.3-2.1,0.8-2.9c0.4-0.8,1-1.2,1.8-1.2c0.8,0,1.4,0.4,1.8,1.1c0.4,0.7,0.6,2,0.6,3.8c0,0.4,0,0.8,0,1.3c0,0.5,0,1,0,1.5
		c0,0.5,0,1,0,1.6c0,0.5,0,1,0,1.4c0,1.1,0.1,2.2,0.3,3.1c0.2,1,0.5,1.9,1,2.6c0.5,0.8,1.1,1.3,1.8,1.8c0.8,0.4,1.7,0.7,2.8,0.7
		c1.3,0,2.3-0.4,3-1.1c0.7-0.7,1-1.9,1-3.5C455.9,230.7,455.4,230.8,454.7,230.8z M454.4,192.3c-0.2,0.5-0.7,1.7-0.7,2.5
		s0,1.2,0.5,2.3c0.2,0.5,0.3,0.6,0.3,0.7c0,0,0,0,0,0c0,0.1,0.1,0.4-0.2,0.6c-0.3,0.2-5.2,2.7-11.4,3.4c-6.2,0.8-7.5,0.8-19.1,0.3
		c-11.5-0.5-12.9-0.8-18.7-0.5c-5.8,0.3-12.2,1.5-17.2,3.6c0,0,2.1-1.8,5.5-3.2c3.4-1.3,7.4-2.4,12.4-3c5-0.6,11.2-1,16.5-1.1
		c5.3-0.1,11-0.3,12.9-0.4c1.9-0.1,8.2-0.2,11.4-1.5c3.2-1.3,3.6-1.7,3.8-2.1s0.5-0.8-1.2-1c-1.7-0.2-2.9,0.9-15.8-1.5
		c-12.8-2.4-13-2.8-14.5-3.1c-1.5-0.3-14.1-4-29-3c-14.8,1-23.3,5.8-34.5,10.7c0,0-2,0.8-4.6,0.8c-11.7,0.2-17.9,1.1-25.8,1.8
		c-3.6,0.3-8.5,1-14.5,2.5c1.2,0.1,2.2,0.2,3.3,0.5c1.3,0.4,2.5,0.9,3.5,1.6c1,0.7,1.7,1.5,2.3,2.6c0.5,1,0.8,2.2,0.8,3.5
		c0,1.3-0.3,2.6-0.9,3.8c-0.6,1.2-1.4,2.2-2.6,3c1.5,0.4,2.6,1.1,3.3,2.2c0.7,1.1,1.1,2.8,1.1,5c0,0.4,0,0.9,0,1.5
		c0,0.6-0.1,1.2-0.1,1.9c0,0.6,0,1.2-0.1,1.8c0,0.6,0,1,0,1.4c0,1.5,0.2,2.6,0.7,3.4c0.5,0.8,1.1,1.3,1.9,1.6
		c-0.9,0.3-1.7,0.5-2.4,0.6c-0.7,0.1-1.4,0.2-1.9,0.2c-1.5,0-2.5-0.4-3.2-1.2c-0.7-0.8-1-2.1-1-3.8c0-0.4,0-1,0-1.6
		c0-0.6,0.1-1.3,0.1-2c0-0.7,0.1-1.4,0.1-2c0-0.7,0.1-1.3,0.1-1.8c0-1.6-0.2-3-0.8-4c-0.5-1-1.4-1.5-2.8-1.5c-0.5,0-1,0.1-1.5,0.2
		v16.9H304v-28.6l6.5-0.9v10.4h0.4c0.8,0,1.5-0.2,2.1-0.6c0.6-0.4,1.1-0.9,1.5-1.5c0.4-0.6,0.7-1.3,1-2.1c0.2-0.8,0.3-1.6,0.3-2.5
		c0-0.6-0.1-1.2-0.2-1.9c-0.2-0.7-0.5-1.3-0.9-1.9c-0.5-0.6-1.1-1.1-2-1.5c-0.9-0.4-2.1-0.6-3.5-0.6c-1.4,0-2.6,0.2-3.8,0.6
		c-1.2,0.4-2.2,1-3,1.7c-0.8,0.8-1.5,1.7-2,2.8c-0.5,1.1-0.7,2.4-0.7,3.9c0,0.8,0.1,1.5,0.2,2.1c0.1,0.6,0.3,1.1,0.5,1.4
		s0.3,0.7,0.5,0.9c0.2,0.2,0.3,0.4,0.3,0.5c-1.8,0-3.2-0.4-4.3-1.3c-1-0.8-1.6-2.2-1.6-4c0-1.5,0.3-2.9,1-4.2
		c0.7-1.3,1.7-2.5,2.9-3.4c1.3-1,2.8-1.8,4.5-2.4c0.7-0.2,1.5-0.4,2.3-0.6h0c3.1-1.3,10.1-3.8,20.5-5.2c14.4-1.9,22.9-2.4,25.2-2.5
		c2.3-0.2,2.1-0.3,5.6-1.9c3.5-1.5,11.8-5,17.2-6.3c5.3-1.3,11.3-2.9,19.3-2.8c8,0.1,17.1,1.4,23.9,3.1c6.8,1.8,16.6,4.4,20.2,5
		c3.7,0.6,7.2,1.2,10.6,0.9c3.4-0.3,5.1-0.9,5.9-1.1c0.8-0.2,0.9,0.1,0.9,0.1s0.1,0.1-0.1,0.4C454.9,191.5,454.6,191.9,454.4,192.3z
		"/>
	<path class="st2" d="M121.3,285.9c-0.3-0.5-0.5-1.3-0.5-2.2c0-0.2,0-0.5,0-0.9c0-0.4,0-0.8,0-1.2s0-0.8,0-1.2c0-0.4,0-0.8,0-1
		c0-1.8-0.4-3.1-1.2-3.9c-0.8-0.8-2-1.1-3.5-1.1c-0.2,0-0.4,0-0.5,0s-0.3,0-0.5,0l6.4-9.6h-2.8l-5.2,9.5v-9.6c-0.2,0-0.4,0-0.6,0
		c-0.2,0-0.4,0-0.6,0c-1.1,0-2.2,0.2-3.3,0.6c-1.1,0.4-2,0.9-2.8,1.5s-1.5,1.4-2,2.3c-0.5,0.9-0.8,1.8-0.8,2.9c0,1.2,0.3,2.1,1,2.6
		c0.7,0.6,1.7,0.8,2.8,0.8c-0.1-0.1-0.1-0.2-0.2-0.4c-0.1-0.2-0.2-0.4-0.4-0.6s-0.2-0.6-0.3-1c-0.1-0.4-0.1-0.9-0.1-1.4
		c0-1.3,0.3-2.3,0.8-3.2s1.3-1.5,2.2-2v20.3h4.3v-11.3c0.1,0,0.3-0.1,0.5-0.1c0.2,0,0.4,0,0.5,0c0.9,0,1.5,0.3,1.9,1
		c0.3,0.7,0.5,1.6,0.5,2.6c0,0.4,0,0.8,0,1.2c0,0.4,0,0.9-0.1,1.4c0,0.5,0,0.9-0.1,1.3c0,0.4,0,0.8,0,1c0,1.2,0.2,2,0.7,2.5
		c0.5,0.5,1.2,0.8,2.2,0.8c0.4,0,0.8,0,1.3-0.1c0.5-0.1,1-0.2,1.6-0.4C122,286.7,121.6,286.4,121.3,285.9z M137.5,264.8
		c-0.4,0-0.9,0.1-1.4,0.1s-1,0-1.4-0.1c-0.4,0-0.9-0.1-1.3-0.1c-0.4,0-0.8-0.1-1.3-0.1c-0.5,0-0.9-0.1-1.4-0.1
		c-1.5,0-2.7,0.2-3.8,0.5c-1,0.3-1.9,0.8-2.6,1.4s-1.2,1.3-1.5,2.1c-0.3,0.8-0.5,1.7-0.5,2.6c0,1.4,0.3,2.4,1,3s1.7,1,3,1
		c-0.1-0.1-0.2-0.3-0.4-0.5c-0.1-0.2-0.3-0.4-0.4-0.8s-0.2-0.7-0.3-1.2c-0.1-0.5-0.1-1-0.1-1.7c0-0.8,0.1-1.4,0.2-2
		c0.1-0.5,0.3-0.9,0.6-1.2s0.5-0.5,0.9-0.7c0.4-0.1,0.8-0.2,1.2-0.3v20h4.4v-11.3h4.4v-2.2h-4.4v-5.9c0.7,0.1,1.3,0.3,2,0.4
		c0.7,0.1,1.2,0.2,1.8,0.2c0.3,0,0.7,0,1-0.1c0.3-0.1,0.6-0.2,0.8-0.5c0.2-0.2,0.4-0.6,0.6-1.1c0.1-0.5,0.2-1.1,0.2-1.9
		C138.3,264.6,137.9,264.7,137.5,264.8z M155.4,283.2c-0.1-0.3-0.2-0.5-0.4-0.7c-0.2-0.2-0.4-0.4-0.6-0.5c-0.2-0.1-0.5-0.2-0.9-0.2
		c-0.4,0-0.7,0.1-1,0.3s-0.5,0.6-0.5,1.1c0,0.5,0.1,0.8,0.3,1s0.3,0.3,0.5,0.3c-0.1,0.1-0.2,0.2-0.5,0.3c-0.3,0.1-0.7,0.2-1.1,0.2
		c-0.4,0-0.9,0.1-1.3,0.1c-0.5,0-0.8,0-1.2,0c-0.5,0-1,0-1.5,0c-0.5,0-1,0-1.4,0l8.4-20.5h-11.8c-0.5,0-1,0.1-1.4,0.2
		c-0.4,0.1-0.7,0.3-1,0.6c-0.3,0.2-0.5,0.5-0.6,0.9s-0.2,0.7-0.2,1c0,0.2,0,0.5,0.1,0.8c0.1,0.3,0.2,0.5,0.3,0.7
		c0.2,0.2,0.4,0.4,0.6,0.5c0.2,0.1,0.5,0.2,0.9,0.2c0.5,0,0.8-0.2,1-0.5c0.2-0.3,0.3-0.7,0.3-1.1c0-0.3-0.1-0.5-0.2-0.7
		c-0.1-0.2-0.3-0.4-0.5-0.5c0-0.2,0.3-0.4,0.8-0.5c0.5-0.1,1.1-0.1,1.8-0.1c0.3,0,0.6,0,1,0c0.4,0,0.8,0,1.2,0c0.4,0,0.8,0,1.2,0
		c0.4,0,0.6,0,0.8,0l-8.5,20.9h12c0.5,0,1-0.1,1.4-0.3s0.7-0.4,1-0.7c0.3-0.3,0.5-0.6,0.6-1c0.1-0.4,0.2-0.7,0.2-1.1
		C155.5,283.7,155.5,283.4,155.4,283.2z M156.9,277.9v2.4h6v-2.4H156.9z M179.6,277.9c-0.5-0.9-1.1-1.6-1.8-2.2
		c-0.7-0.6-1.5-1.1-2.3-1.6s-1.6-0.9-2.3-1.4c-0.7-0.5-1.3-1-1.8-1.7c-0.5-0.6-0.7-1.4-0.7-2.4c0-0.8,0.2-1.5,0.6-2
		c0.4-0.5,1-0.8,2-0.8c0.8,0,1.4,0.2,1.8,0.6c0.4,0.4,0.6,0.9,0.6,1.5c0,0.4-0.1,0.8-0.2,1.2c-0.2,0.4-0.4,0.7-0.6,0.9
		c0.4,0.4,0.9,0.6,1.5,0.6c0.6,0,1.1-0.2,1.4-0.7c0.3-0.5,0.5-1.1,0.5-1.8c0-0.9-0.2-1.6-0.6-2.1c-0.4-0.5-0.9-0.9-1.5-1.1
		s-1.1-0.4-1.7-0.5c-0.6,0-1-0.1-1.3-0.1c-2,0-3.6,0.5-4.7,1.4c-1.2,0.9-1.7,2.2-1.7,4c0,1.1,0.2,2,0.6,2.7s1,1.4,1.6,1.9
		c0.7,0.6,1.4,1.1,2.1,1.5c0.8,0.5,1.5,1,2.1,1.5c0.7,0.5,1.2,1.2,1.6,1.9c0.4,0.7,0.7,1.6,0.7,2.6c0,1.1-0.3,1.9-0.8,2.4
		c-0.5,0.5-1.3,0.7-2.2,0.7s-1.8-0.2-2.4-0.7c-0.6-0.5-1-1.2-1-2.2c0-0.5,0.1-1,0.3-1.3c0.2-0.3,0.4-0.6,0.7-0.8
		c0.3-0.2,0.6-0.3,1-0.4c0.4-0.1,0.7-0.1,1.1-0.1c-0.1-0.4-0.3-0.7-0.6-1c-0.2-0.3-0.5-0.5-0.8-0.6c-0.3-0.1-0.5-0.3-0.8-0.3
		c-0.3-0.1-0.5-0.1-0.8-0.1c-0.5,0-0.9,0.1-1.4,0.3c-0.4,0.2-0.8,0.5-1.2,0.9c-0.3,0.4-0.6,0.8-0.8,1.4c-0.2,0.6-0.3,1.2-0.3,1.9
		c0,1,0.2,1.9,0.6,2.6c0.4,0.7,1,1.3,1.7,1.7c0.7,0.4,1.5,0.7,2.4,0.9c0.9,0.2,1.8,0.3,2.7,0.3c1,0,2-0.1,2.9-0.3
		c0.9-0.2,1.6-0.6,2.3-1.1c0.6-0.5,1.1-1.2,1.5-2c0.4-0.8,0.5-1.8,0.5-2.9C180.3,279.9,180.1,278.8,179.6,277.9z M213.8,272.9
		c-0.5-1-1.2-1.5-2.2-1.5c-0.5,0-0.9,0.1-1.1,0.4s-0.4,0.5-0.4,0.9c0,0.2,0,0.4,0.1,0.6c0.1,0.2,0.2,0.4,0.3,0.6s0.3,0.3,0.5,0.5
		c0.2,0.1,0.4,0.2,0.6,0.2c0.1,0,0.3,0,0.5-0.1s0.3-0.1,0.4-0.2c0.2,0.8,0.2,1.7,0.2,2.6c0,0.8-0.1,1.7-0.2,2.6s-0.3,1.7-0.6,2.4
		c-0.3,0.7-0.6,1.3-1,1.8c-0.4,0.5-0.9,0.7-1.5,0.7c-0.5,0-0.8-0.2-1-0.5c-0.2-0.3-0.3-0.9-0.3-1.6V272h-4.3v1.8
		c0-0.1,0-0.1-0.1-0.2c-0.1-0.3-0.3-0.6-0.5-0.8c-0.2-0.3-0.5-0.5-0.8-0.6s-0.7-0.2-1-0.2c-0.6,0-1.2,0.2-1.8,0.6
		c-0.5,0.4-1,0.9-1.5,1.4V272h-4.3v9.6h-0.2c-0.3,0.4-0.6,0.8-0.9,1.2s-0.6,0.7-1,1c-0.4,0.3-0.8,0.5-1.2,0.6
		c-0.5,0.2-1,0.2-1.6,0.2c-1.1,0-1.8-0.3-2.3-0.8c-0.4-0.6-0.7-1.5-0.7-2.9c0.7,0,1.5-0.2,2.2-0.4c0.7-0.2,1.3-0.6,1.9-1.1
		c0.5-0.5,1-1.1,1.3-1.7s0.5-1.5,0.5-2.4c0-0.2,0-0.4-0.1-0.8s-0.2-0.8-0.5-1.2c-0.2-0.4-0.6-0.8-1.1-1c-0.5-0.3-1.3-0.5-2.2-0.5
		c-1.3,0-2.3,0.3-3.1,0.8s-1.5,1.3-1.9,2.1c-0.5,0.8-0.8,1.8-1,2.7s-0.3,1.9-0.3,2.8c0,1.2,0.1,2.3,0.4,3.1c0.3,0.9,0.7,1.6,1.2,2.1
		c0.5,0.6,1.2,1,1.9,1.2c0.7,0.3,1.5,0.4,2.4,0.4c1,0,1.9-0.2,2.7-0.5c0.8-0.3,1.4-0.7,2-1.3c0.6-0.5,1-1.1,1.4-1.8
		c0.1-0.1,0.1-0.2,0.2-0.3v3.7h4.3v-11.4c0.3-0.3,0.6-0.6,0.9-0.9c0.3-0.2,0.6-0.3,0.9-0.3c0.3,0,0.5,0.1,0.6,0.3s0.2,0.4,0.3,0.6
		c0.1,0.2,0.2,0.5,0.4,0.6c0.2,0.2,0.5,0.3,1,0.3c0.6,0,1.1-0.2,1.3-0.5c0.1-0.2,0.2-0.4,0.3-0.5v7c0,1.5,0.4,2.7,1.2,3.6
		c0.8,0.9,1.9,1.4,3.3,1.4c1.2,0,2.2-0.3,3-1c0.8-0.6,1.4-1.4,1.9-2.4c0.5-1,0.8-2.1,1-3.3s0.3-2.4,0.3-3.5
		C214.4,275.2,214.2,273.9,213.8,272.9z M186.1,277.1c0.1-0.7,0.3-1.4,0.5-1.9c0.2-0.5,0.4-1,0.7-1.3c0.3-0.3,0.6-0.5,0.9-0.5
		c0.3,0,0.5,0.1,0.8,0.4c0.2,0.3,0.4,0.8,0.4,1.5c0,0.6-0.1,1.1-0.3,1.6c-0.2,0.5-0.4,0.9-0.8,1.3c-0.3,0.4-0.7,0.7-1.1,0.9
		s-0.9,0.4-1.4,0.4C185.9,278.6,186,277.9,186.1,277.1z M219.3,266.3c-0.5-0.5-1-0.7-1.7-0.7c-0.7,0-1.2,0.2-1.7,0.7
		c-0.5,0.5-0.7,1-0.7,1.7c0,0.7,0.2,1.2,0.7,1.7c0.5,0.5,1,0.7,1.7,0.7c0.7,0,1.2-0.2,1.7-0.7c0.5-0.5,0.7-1,0.7-1.7
		C220,267.3,219.8,266.8,219.3,266.3z M244.4,283.8c-0.6,0.3-1.2,0.5-1.7,0.5c-0.6,0-1.2-0.2-1.7-0.7s-0.8-1.4-0.9-2.7
		c0.8,0,1.5-0.2,2.2-0.5c0.7-0.3,1.3-0.7,1.8-1.1c0.5-0.5,0.9-1,1.2-1.6s0.5-1.3,0.5-2c0-0.2,0-0.6-0.1-1s-0.2-0.8-0.5-1.3
		c-0.3-0.4-0.7-0.8-1.2-1c-0.5-0.3-1.3-0.4-2.3-0.4c-1.2,0-2.2,0.3-3,0.8s-1.4,1.2-1.9,2.1s-0.8,1.7-1,2.7c-0.2,1-0.3,1.9-0.3,2.7
		c0,0.5,0,1,0.1,1.4h-0.6c-0.3,0.4-0.6,0.8-0.9,1.2s-0.6,0.7-1,1c-0.4,0.3-0.8,0.5-1.2,0.6s-1,0.2-1.6,0.2c-0.5,0-0.9-0.1-1.3-0.2
		c-0.4-0.1-0.7-0.4-1-0.7c-0.3-0.3-0.5-0.8-0.6-1.4c-0.1-0.6-0.2-1.4-0.2-2.3c0-0.7,0-1.5,0.1-2.3c0.1-0.8,0.2-1.5,0.4-2.1
		c0.2-0.6,0.4-1.1,0.7-1.5c0.3-0.4,0.6-0.6,1-0.6c0.4,0,0.6,0.2,0.9,0.5c0.2,0.4,0.3,0.9,0.3,1.8c0,0.2,0,0.4,0,0.5s0,0.3-0.1,0.4
		c0.2,0.1,0.4,0.2,0.7,0.3c0.2,0.1,0.4,0.1,0.6,0.1c0.4,0,0.7-0.2,0.9-0.5c0.2-0.3,0.3-0.8,0.3-1.3c0-0.4-0.1-0.7-0.2-1.1
		s-0.3-0.8-0.6-1.1c-0.3-0.3-0.7-0.6-1.2-0.8c-0.5-0.2-1.2-0.3-1.9-0.3c-1.3,0-2.3,0.3-3.1,0.8c-0.8,0.6-1.4,1.3-1.9,2.1
		c-0.5,0.8-0.8,1.8-0.9,2.7c-0.2,1-0.2,1.9-0.2,2.7c0,0.8,0.1,1.5,0.2,2.2c-0.1,0.4-0.3,0.7-0.5,1c-0.4,0.5-0.9,0.8-1.5,0.8
		s-1-0.1-1.2-0.4c-0.2-0.3-0.3-0.8-0.3-1.7V272h-4.3v10.5c0,1.4,0.3,2.5,0.9,3.4c0.6,0.9,1.7,1.3,3.2,1.3c0.4,0,0.9-0.1,1.4-0.2
		c0.5-0.1,1-0.4,1.5-0.8c0.5-0.4,1-0.9,1.3-1.7c0,0,0-0.1,0.1-0.1c0.2,0.4,0.5,0.8,0.8,1.2c0.5,0.5,1.2,0.9,1.9,1.2
		c0.7,0.2,1.5,0.4,2.3,0.4c1,0,1.9-0.2,2.7-0.5c0.8-0.3,1.4-0.7,2-1.3c0.6-0.5,1-1.1,1.4-1.8c0.3-0.4,0.5-0.9,0.7-1.3
		c0.1,0.4,0.2,0.8,0.3,1.1c0.3,0.9,0.7,1.6,1.2,2.2c0.5,0.6,1.1,1,1.9,1.2c0.7,0.2,1.5,0.4,2.4,0.4c0.6,0,1.2-0.1,1.7-0.2
		c0.5-0.1,1-0.4,1.3-0.7c0.4-0.3,0.7-0.8,0.9-1.4c0.2-0.6,0.3-1.3,0.3-2.1C245.5,283.1,245,283.5,244.4,283.8z M240.3,277.4
		c0.1-0.7,0.3-1.4,0.5-2c0.2-0.6,0.4-1.1,0.7-1.4c0.3-0.4,0.6-0.6,0.9-0.6c0.3,0,0.5,0.1,0.8,0.4s0.3,0.8,0.3,1.6
		c0,0.5-0.1,1-0.2,1.5c-0.2,0.5-0.4,0.9-0.7,1.2s-0.7,0.7-1.1,0.9s-0.9,0.4-1.4,0.4C240.1,278.8,240.2,278.1,240.3,277.4z
		 M273,274.6h-0.2c-0.2,0.5-0.5,0.8-1,1c-0.5,0.2-1,0.3-1.6,0.3c-0.4,0-0.8,0-1.1-0.1c-0.4,0-0.8-0.1-1.2-0.1
		c-1.5,0-2.8,0.4-3.6,1.2c-0.8,0.8-1.3,1.8-1.3,3l0.2,0c0.4-0.9,1.2-1.3,2.5-1.3c0.4,0,0.8,0,1.2,0.1c0.4,0,0.8,0.1,1.2,0.1
		c-0.2,2-0.7,3.4-1.5,4.4s-2,1.4-3.7,1.4c-0.6,0-1.2-0.1-1.7-0.3c-0.5-0.2-0.8-0.5-1.1-0.9c-0.3-0.4-0.5-0.8-0.6-1.3
		c-0.1-0.5-0.2-1-0.2-1.6c0-0.6,0.1-1.3,0.2-1.9c0.2-0.7,0.4-1.3,0.8-1.8s0.7-1.1,1.2-1.5c0.5-0.4,1.1-0.7,1.7-0.8
		c-0.7-0.2-1.3-0.4-1.8-0.8c-0.5-0.3-0.9-0.7-1.2-1.2c-0.3-0.4-0.6-0.9-0.7-1.4c-0.2-0.5-0.2-1-0.2-1.5c0-0.4,0.1-0.9,0.2-1.3
		c0.1-0.4,0.2-0.8,0.5-1.1c0.2-0.3,0.4-0.6,0.7-0.8c0.3-0.2,0.6-0.3,1-0.3c0.2,0,0.5,0,0.7,0.1s0.5,0.2,0.7,0.3
		c0.2,0.2,0.4,0.4,0.5,0.7s0.2,0.7,0.2,1.2c0,0.4-0.1,0.9-0.2,1.2c-0.1,0.4-0.3,0.7-0.6,0.8c0.3,0.3,0.5,0.5,0.7,0.6
		c0.2,0.1,0.4,0.1,0.7,0.1c0.3,0,0.5-0.1,0.7-0.2c0.2-0.2,0.4-0.4,0.5-0.6c0.1-0.3,0.2-0.5,0.3-0.9s0.1-0.7,0.1-1
		c0-0.5-0.1-1-0.3-1.4s-0.5-0.9-0.9-1.3c-0.4-0.4-0.9-0.7-1.6-0.9c-0.6-0.2-1.4-0.4-2.3-0.4c-0.8,0-1.6,0.2-2.2,0.5
		c-0.7,0.3-1.2,0.7-1.7,1.2c-0.5,0.5-0.8,1.1-1.1,1.8c-0.2,0.7-0.4,1.3-0.4,2c0,0.9,0.2,1.7,0.7,2.5c0.4,0.8,1.1,1.5,2.1,2.1
		c-0.7,0.2-1.3,0.5-1.8,0.9c-0.5,0.4-0.9,0.9-1.3,1.5c-0.3,0.6-0.6,1.2-0.8,1.9c-0.2,0.7-0.3,1.4-0.3,2c0,0.8,0.1,1.7,0.4,2.5
		c0.3,0.8,0.7,1.5,1.3,2.1s1.3,1.1,2.1,1.5c0.8,0.4,1.8,0.6,3,0.6c1.3,0,2.4-0.2,3.4-0.7c1-0.5,1.9-1.1,2.6-1.9
		c0.7-0.8,1.2-1.7,1.6-2.8c0.4-1.1,0.6-2.2,0.6-3.4c0.6-0.1,1.1-0.2,1.5-0.5c0.5-0.2,0.9-0.5,1.2-0.9c0.3-0.3,0.6-0.7,0.8-1.1
		c0.2-0.4,0.3-0.8,0.3-1.2C273.1,274.9,273,274.8,273,274.6z M298,285.9c-0.3-0.5-0.5-1.3-0.5-2.2c0-0.2,0-0.5,0-0.9
		c0-0.4,0-0.8,0.1-1.2c0-0.4,0-0.8,0-1.2c0-0.4,0-0.8,0-1c0-1.8-0.4-3.1-1.2-3.9c-0.8-0.8-2-1.1-3.5-1.1c-0.2,0-0.4,0-0.5,0
		s-0.3,0-0.5,0l6.4-9.6h-2.8l-5.2,9.5v-9.6c-0.2,0-0.4,0-0.6,0c-0.2,0-0.4,0-0.7,0c-1.1,0-2.2,0.2-3.3,0.6s-2,0.9-2.8,1.5
		c-0.8,0.7-1.5,1.4-2,2.3c-0.5,0.9-0.7,1.8-0.7,2.9c0,1.2,0.4,2.1,1,2.6c0.7,0.6,1.6,0.8,2.8,0.8c-0.1-0.1-0.2-0.2-0.2-0.4
		c-0.1-0.2-0.2-0.4-0.3-0.6s-0.2-0.6-0.3-1c-0.1-0.4-0.1-0.9-0.1-1.4c0-1.3,0.3-2.3,0.8-3.2c0.5-0.9,1.3-1.5,2.2-2v20.3h4.3v-11.3
		c0.1,0,0.3-0.1,0.5-0.1c0.2,0,0.4,0,0.5,0c0.9,0,1.5,0.3,1.9,1c0.3,0.7,0.5,1.6,0.5,2.6c0,0.4,0,0.8,0,1.2c0,0.4-0.1,0.9-0.1,1.4
		c0,0.5,0,0.9-0.1,1.3c0,0.4,0,0.8,0,1c0,1.2,0.2,2,0.7,2.5c0.5,0.5,1.2,0.8,2.2,0.8c0.4,0,0.8,0,1.3-0.1c0.5-0.1,1-0.2,1.6-0.4
		C298.8,286.7,298.3,286.4,298,285.9z M314.2,264.8c-0.4,0-0.9,0.1-1.4,0.1s-1,0-1.4-0.1c-0.4,0-0.9-0.1-1.3-0.1
		c-0.4,0-0.9-0.1-1.3-0.1c-0.4,0-0.9-0.1-1.4-0.1c-1.5,0-2.7,0.2-3.8,0.5c-1,0.3-1.9,0.8-2.6,1.4c-0.7,0.6-1.2,1.3-1.5,2.1
		c-0.3,0.8-0.5,1.7-0.5,2.6c0,1.4,0.3,2.4,1,3c0.7,0.6,1.7,1,3,1c-0.1-0.1-0.2-0.3-0.4-0.5s-0.3-0.4-0.4-0.8s-0.2-0.7-0.3-1.2
		c-0.1-0.5-0.1-1-0.1-1.7c0-0.8,0.1-1.4,0.2-2c0.1-0.5,0.3-0.9,0.6-1.2s0.5-0.5,0.9-0.7c0.4-0.1,0.8-0.2,1.2-0.3v20h4.4v-11.3h4.4
		v-2.2h-4.4v-5.9c0.7,0.1,1.3,0.3,2,0.4c0.6,0.1,1.2,0.2,1.8,0.2c0.3,0,0.7,0,1-0.1c0.3-0.1,0.6-0.2,0.8-0.5s0.4-0.6,0.6-1.1
		c0.1-0.5,0.2-1.1,0.2-1.9C315,264.6,314.6,264.7,314.2,264.8z M332.1,283.2c-0.1-0.3-0.2-0.5-0.4-0.7c-0.2-0.2-0.4-0.4-0.6-0.5
		c-0.2-0.1-0.5-0.2-0.9-0.2c-0.4,0-0.7,0.1-1,0.3c-0.3,0.2-0.5,0.6-0.5,1.1c0,0.5,0.1,0.8,0.3,1s0.4,0.3,0.5,0.3
		c-0.1,0.1-0.2,0.2-0.6,0.3c-0.3,0.1-0.7,0.2-1.1,0.2s-0.8,0.1-1.3,0.1c-0.5,0-0.9,0-1.2,0c-0.5,0-1,0-1.5,0c-0.5,0-1,0-1.4,0
		l8.4-20.5h-11.8c-0.5,0-1,0.1-1.4,0.2c-0.4,0.1-0.7,0.3-1,0.6c-0.3,0.2-0.5,0.5-0.6,0.9s-0.2,0.7-0.2,1c0,0.2,0,0.5,0.1,0.8
		c0.1,0.3,0.2,0.5,0.3,0.7s0.4,0.4,0.6,0.5c0.2,0.1,0.6,0.2,0.9,0.2c0.5,0,0.8-0.2,1-0.5s0.3-0.7,0.3-1.1c0-0.3-0.1-0.5-0.2-0.7
		c-0.1-0.2-0.3-0.4-0.5-0.5c0-0.2,0.3-0.4,0.8-0.5c0.5-0.1,1.1-0.1,1.8-0.1c0.3,0,0.6,0,1,0c0.4,0,0.8,0,1.2,0s0.8,0,1.2,0
		c0.4,0,0.6,0,0.8,0l-8.5,20.9h12c0.5,0,1-0.1,1.4-0.3c0.4-0.2,0.7-0.4,1-0.7c0.3-0.3,0.5-0.6,0.6-1s0.2-0.7,0.2-1.1
		C332.3,283.7,332.2,283.4,332.1,283.2z M333.6,277.9v2.4h6v-2.4H333.6z M359.8,264.6c-0.4,0.2-0.9,0.3-1.4,0.4
		c-0.6,0.1-1.3,0.2-2.1,0.2c-0.6,0-1.2,0-1.8-0.1c-0.5-0.1-1.1-0.1-1.7-0.2c-0.6-0.1-1.2-0.2-1.8-0.2c-0.6-0.1-1.4-0.1-2.2-0.1
		c-1.6,0-3,0.2-4.1,0.5c-1.1,0.3-2,0.8-2.8,1.4c-0.7,0.6-1.2,1.3-1.5,2.1c-0.3,0.8-0.5,1.7-0.5,2.6c0,1.5,0.4,2.5,1.1,3.1
		c0.7,0.6,1.7,0.9,2.9,0.9c-0.1-0.1-0.2-0.2-0.3-0.4s-0.2-0.3-0.3-0.6s-0.2-0.6-0.3-1c-0.1-0.4-0.1-0.9-0.1-1.6c0-0.7,0.1-1.4,0.2-2
		c0.1-0.6,0.4-1.1,0.8-1.4c0.4-0.4,0.8-0.7,1.4-0.9c0.6-0.2,1.4-0.3,2.2-0.3h0.3v19.8h4.3v-19.2c0.9,0.2,1.7,0.3,2.5,0.5
		c0.8,0.1,1.5,0.2,2.1,0.2c1.1,0,2-0.2,2.4-0.7c0.5-0.5,0.7-1.1,0.7-2C359.9,265.3,359.9,265,359.8,264.6z M394.6,283.8
		c-0.6,0.3-1.2,0.5-1.7,0.5c-0.6,0-1.2-0.2-1.7-0.7c-0.5-0.5-0.8-1.4-0.9-2.7c0.8,0,1.5-0.2,2.2-0.5c0.7-0.3,1.3-0.7,1.8-1.1
		c0.5-0.5,0.9-1,1.2-1.6s0.5-1.3,0.5-2c0-0.2,0-0.6-0.1-1s-0.2-0.8-0.5-1.3c-0.3-0.4-0.7-0.8-1.2-1c-0.5-0.3-1.3-0.4-2.3-0.4
		c-1.2,0-2.2,0.3-3,0.8s-1.4,1.2-1.9,2.1s-0.8,1.7-1,2.7c-0.2,1-0.3,1.9-0.3,2.7c0,0.5,0,1,0.1,1.4h-0.7c-0.1,0.8-0.3,1.4-0.7,1.9
		c-0.4,0.5-0.9,0.8-1.5,0.8c-0.6,0-1-0.1-1.2-0.4c-0.2-0.3-0.3-0.8-0.3-1.7V266l-4.3,0.6v15h-0.1c-0.1,0.8-0.3,1.4-0.7,1.9
		c-0.4,0.5-0.9,0.8-1.4,0.8c-0.6,0-1-0.1-1.2-0.4c-0.2-0.3-0.3-0.8-0.3-1.7V272h-4.3v9.6h-0.1c-0.3,0.4-0.6,0.8-0.9,1.2
		c-0.3,0.4-0.6,0.7-1,1c-0.4,0.3-0.8,0.5-1.2,0.6c-0.5,0.2-1,0.2-1.6,0.2c-1.1,0-1.8-0.3-2.3-0.8c-0.4-0.6-0.6-1.5-0.7-2.9
		c0.7,0,1.5-0.2,2.2-0.4c0.7-0.2,1.3-0.6,1.9-1.1c0.5-0.5,1-1.1,1.3-1.7c0.3-0.7,0.5-1.5,0.5-2.4c0-0.2,0-0.4-0.1-0.8
		c-0.1-0.4-0.2-0.8-0.5-1.2c-0.2-0.4-0.6-0.8-1.2-1c-0.5-0.3-1.3-0.5-2.2-0.5c-1.2,0-2.3,0.3-3.1,0.8c-0.8,0.6-1.5,1.3-1.9,2.1
		c-0.5,0.8-0.8,1.8-1,2.7s-0.3,1.9-0.3,2.8c0,1.2,0.2,2.3,0.4,3.1c0.3,0.9,0.7,1.6,1.2,2.1c0.5,0.6,1.1,1,1.9,1.2
		c0.7,0.3,1.5,0.4,2.4,0.4c1,0,1.9-0.2,2.7-0.5c0.8-0.3,1.4-0.7,2-1.3c0.6-0.5,1-1.1,1.4-1.8c0-0.1,0.1-0.2,0.2-0.3
		c0.1,1,0.4,1.9,0.9,2.5c0.6,0.9,1.7,1.3,3.2,1.3c0.4,0,0.9-0.1,1.4-0.2s1-0.4,1.5-0.8c0.5-0.4,0.9-0.9,1.3-1.6
		c0.1,0.5,0.4,0.9,0.6,1.2c0.6,0.9,1.7,1.3,3.2,1.3c0.4,0,0.8-0.1,1.4-0.2s1-0.4,1.5-0.8c0.5-0.4,0.9-0.9,1.3-1.7
		c0.2-0.4,0.4-0.9,0.6-1.5c0,0.1,0.1,0.3,0.1,0.4c0.3,0.9,0.7,1.6,1.2,2.2c0.5,0.6,1.1,1,1.9,1.2c0.7,0.2,1.5,0.4,2.4,0.4
		c0.6,0,1.2-0.1,1.7-0.2c0.5-0.1,1-0.4,1.3-0.7c0.4-0.3,0.7-0.8,0.9-1.4c0.2-0.6,0.3-1.3,0.3-2.1
		C395.7,283.1,395.2,283.5,394.6,283.8z M361.7,277.1c0.1-0.7,0.3-1.4,0.5-1.9c0.2-0.5,0.5-1,0.7-1.3c0.3-0.3,0.6-0.5,0.9-0.5
		c0.3,0,0.5,0.1,0.8,0.4s0.4,0.8,0.4,1.5c0,0.6-0.1,1.1-0.3,1.6c-0.2,0.5-0.4,0.9-0.8,1.3c-0.3,0.4-0.7,0.7-1.1,0.9
		c-0.4,0.2-0.9,0.4-1.4,0.4C361.5,278.6,361.6,277.9,361.7,277.1z M390.5,277.4c0.1-0.7,0.3-1.4,0.5-2c0.2-0.6,0.4-1.1,0.7-1.4
		c0.3-0.4,0.6-0.6,0.9-0.6c0.3,0,0.5,0.1,0.8,0.4c0.2,0.3,0.3,0.8,0.3,1.6c0,0.5-0.1,1-0.3,1.5c-0.2,0.5-0.4,0.9-0.7,1.2
		s-0.7,0.7-1.1,0.9s-0.9,0.4-1.4,0.4C390.3,278.8,390.4,278.1,390.5,277.4z M373,266.3c-0.5-0.5-1-0.7-1.7-0.7s-1.2,0.2-1.7,0.7
		c-0.5,0.5-0.7,1-0.7,1.7c0,0.7,0.2,1.2,0.7,1.7c0.5,0.5,1,0.7,1.7,0.7s1.2-0.2,1.7-0.7c0.5-0.5,0.7-1,0.7-1.7
		C373.7,267.3,373.4,266.8,373,266.3z M440.6,184.1c-3.3,0.4-5.8,0.1-7.7-0.1c-2.6-0.3-4.6-0.8-8.5-1.8c-2.6-0.7-3.1-0.9-6.4-1.7
		c-1.2-0.3-3.1-0.8-5.6-1.4c0,0-7.8-1.8-12.6-2.3c0,0-0.1,0-0.3,0c-0.5-0.1-5.8-1-13.5-0.2c-7.7,0.7-12.9,2.5-15.9,3.4
		c-3,0.9-8.4,3-8.6,3.1c-0.2,0.1-4.5,1.9-4.7,2c-0.2,0.1-1.8,0.8-2.9,0.9c-0.5,0.1-0.8,0.1-1,0.1c-0.1,0-0.1,0-0.1,0
		c-5.4,0.3-9.9,0.7-13.3,1.1c-2.6,0.3-4.9,0.5-8.2,1c-5.7,0.8-9.3,1.7-10.5,2c0,0-4.4,1.1-8.2,2.6c-1,0.4-2,0.9-2,0.9
		c-0.8,0.4-1.4,0.8-1.5,0.9c-0.6,0.4-1.4,0.9-2.3,1.7c-0.4,0.4-0.8,0.7-1,1c1-0.6,2.2-1.3,3.5-1.9c1.1-0.5,2.2-1,3.2-1.3
		c0.9-0.3,2.1-0.7,3.6-1.2c0.7-0.2,3.1-0.9,6.5-1.5c2.6-0.5,4.6-0.7,6.5-1c0,0,5.5-0.7,12.7-1c0.6,0,1.8-0.1,3.7-0.2
		c1.8-0.1,2-0.1,2.6-0.1c1.5-0.1,1.9,0,3.2-0.1c1.2-0.1,1.8-0.1,2.3-0.2c0.8-0.1,1.9-0.3,3.2-0.8c0.3-0.1,0.8-0.3,1.4-0.5
		c0.7-0.3,1.2-0.5,1.8-0.8c0.8-0.4,1.6-0.7,2.4-1.1c1.9-0.9,3.5-1.5,4.1-1.8c0.6-0.2,2.4-1,4.5-1.7c2.5-0.9,5.3-1.8,9.2-2.6
		c3.5-0.7,6.3-1,7.9-1.1c0.6,0,2.5-0.2,5-0.1c0.6,0,3,0,6.7,0.5c2.9,0.3,5,0.7,7.4,1.1c1.7,0.3,5.8,1,10.9,2.3
		c1.7,0.4,1.8,0.5,3.6,0.9c2.8,0.7,5,1.2,7.7,1.6c1.9,0.3,3.7,0.6,6.2,0.7c1.3,0,3.3,0,5.5-0.4c0.9-0.2,1.5-0.4,2-0.5
		c1.3-0.5,2.3-1,2.9-1.5C444.6,183.4,442.8,183.8,440.6,184.1z M455.1,199.7c-1.8,1-3.5,1.6-4.8,2.1c-2.2,0.7-3.9,1-4.9,1.2
		c-1.7,0.3-3.2,0.4-5.1,0.6c-0.5,0-1.5,0.1-2.7,0.2c-0.8,0.1-1.4,0.1-1.8,0.1c0.3,0.1,0.8,0.2,1.3,0.3c1.1,0.2,2,0.3,3.3,0.4
		c2.4,0.1,4.3,0.1,5.3,0c0,0,2.1-0.1,4.1-0.3c0.8-0.1,1.4-0.2,1.6-0.2c0.6-0.1,1-0.2,1.4-0.3c0.1,0,0.2,0,0.2,0c0.2,0,0.2,0,0.2,0
		c0.1,0,0.1,0,0.2,0c0.1,0,0.1,0.1,0.1,0.1c0.1,0.1,0.1,0.2,0.1,0.3c0,0.1,0,0.1,0,0.2c0.1,0.5,0.1,0.7,0.1,0.7c0,0.3,0,0.3,0,0.6
		c0,0.3,0.1,0.5,0.1,0.6c0,0.1,0.1,0.4,0.2,0.7c0.1,0.2,0.3,0.4,0.6,0.6c0.5,0.3,0.8,0.5,1,0.6c0,0,0.1,0.1,0.2,0.1
		c0.2,0.1,0.3,0.1,0.4,0.2C456.2,208.3,456.7,204.8,455.1,199.7z M414.7,190.9c-3.8-1.2-6.8-1.7-8.8-2c-1-0.1-4.9-0.7-10.2-0.6
		c-2.1,0-3.9,0.2-5.2,0.3c-1.6,0.2-3.3,0.5-5,0.8c-2.5,0.5-4.8,1-7,1.5c0,0-2.5,0.6-5.7,1.6c-0.7,0.2-1.7,0.5-2.9,1.1
		c-0.9,0.5-1.7,0.9-2.2,1.2c-0.3,0.2-0.7,0.5-0.4,0.9c0.4,0.4,1.2,0.3,1.4,0.3c15-0.4,30-0.9,45-1.5l8.8-0.4
		C420.6,193.2,418,192,414.7,190.9z"/>
</g>
</svg>
