<?xml version="1.0" encoding="utf-8"?>
<!-- Generator: Adobe Illustrator 25.2.1, SVG Export Plug-In . SVG Version: 6.00 Build 0)  -->
<svg version="1.1" id="Ebene_1" xmlns="http://www.w3.org/2000/svg" xmlns:xlink="http://www.w3.org/1999/xlink" x="0px" y="0px"
	 viewBox="0 0 1024 1024" style="enable-background:new 0 0 1024 1024;" xml:space="preserve">
<style type="text/css">
	.st0{fill:#FF4400;}
	.st1{fill:#ffffff;}
	.st2{fill:#404040;}
	.st3{fill:none;}
</style>
<g>
	<g>
		<path class="st0" d="M105.1,733.7c-1.2-48.9,103-96.6,275.4-135.4l-2.7-2.7C152.1,637.8,10.6,693.8,12,751.6
			C14.6,852.7,453.6,923,1012,915.9v-20.3C498.6,894.5,107.4,827.7,105.1,733.7z"/>
		<path class="st1" d="M1012,842.6c-407.2-7.9-723-64.9-723-133.9c0-26.8,47.4-51.7,129.2-72.7l-3.6-3.6
			c-140,24.2-225.9,56.9-225.9,92.9c0,74.5,367.4,134.9,820.7,134.9c0.9,0,1.8,0,2.6,0V842.6z"/>
		
			<rect x="366.9" y="449.4" transform="matrix(0.7071 -0.7071 0.7071 0.7071 -249.0174 484.7478)" class="st1" width="187.4" height="187.1"/>
		
			<rect x="366.9" y="146.4" transform="matrix(0.7071 -0.7071 0.7071 0.7071 -34.764 396.0012)" class="st1" width="187.4" height="187.1"/>
		
			<rect x="517.9" y="298.4" transform="matrix(0.7071 -0.7071 0.7071 0.7071 -98.0174 547.2941)" class="st0" width="187.4" height="187.1"/>
		
			<rect x="215.9" y="298.4" transform="matrix(0.7071 -0.7071 0.7071 0.7071 -186.4711 333.7478)" class="st0" width="187.4" height="187.1"/>
	</g>
	<g id="Rad">
		<path class="st2" d="M460.5,169.3c-39.8,0-72,32.2-72,72s32.2,72,72,72s72-32.2,72-72S500.3,169.3,460.5,169.3z M460.5,298.8
			c-31.8,0-57.5-25.7-57.5-57.5s25.7-57.5,57.5-57.5s57.5,25.7,57.5,57.5S492.3,298.8,460.5,298.8z"/>
		<circle class="st2" cx="460.5" cy="241.3" r="53.5"/>
		<path class="st1" d="M460.5,223.3c0.7,0,1.4,0,2,0.1l16.7-28.9c-5.8-2.3-12.1-3.6-18.7-3.6s-12.9,1.3-18.7,3.6l16.7,28.9
			C459.2,223.4,459.9,223.3,460.5,223.3z"/>
		<path class="st1" d="M477,234.1h33.4c-1.9-13.1-8.8-24.6-18.7-32.4L475,230.7C475.8,231.7,476.5,232.9,477,234.1z"/>
		<circle class="st1" cx="460.5" cy="241.3" r="16.2"/>
		<path class="st1" d="M460.5,259.3c-0.7,0-1.4,0-2-0.1l-16.7,28.9c5.8,2.3,12.1,3.6,18.7,3.6s12.9-1.3,18.7-3.6l-16.7-28.9
			C461.9,259.3,461.2,259.3,460.5,259.3z"/>
		<path class="st1" d="M446.1,230.7l-16.7-28.9c-9.9,7.8-16.8,19.3-18.7,32.4H444C444.6,232.9,445.3,231.7,446.1,230.7z"/>
		<path class="st1" d="M475,252l16.7,28.9c9.9-7.8,16.8-19.3,18.7-32.4H477C476.5,249.8,475.8,250.9,475,252z"/>
		<path class="st1" d="M444,248.5h-33.4c1.9,13.1,8.8,24.6,18.7,32.4l16.7-28.9C445.3,250.9,444.6,249.8,444,248.5z"/>
	</g>
	<g id="Kolben">
		<path class="st2" d="M573.5,387.6c0,1.5,1.2,2.7,2.7,2.7h4.5c4.7-6.6,11.4-11.6,19.2-14.1l-4.7,44.9c-3.2,2.4-5.8,5.4-7.6,8.9
			h-7.8v25.4h7.8c4.5,8.5,13.5,14.3,23.9,14.3s19.3-5.8,23.9-14.3h7.8v-25.4h-7.8c-1.9-3.5-4.5-6.5-7.6-8.9l-4.7-45
			c8,2.5,14.8,7.6,19.5,14.2h4.2c1.5,0,2.7-1.2,2.7-2.7v-48.4h-76V387.6z M631.8,442.8c0,11.2-9.1,20.3-20.3,20.3
			s-20.3-9.1-20.3-20.3c0-11.2,9.1-20.3,20.3-20.3S631.8,431.6,631.8,442.8z M611.5,347.7c6,0,10.8,4.8,10.8,10.8
			s-4.8,10.8-10.8,10.8c-6,0-10.8-4.8-10.8-10.8S605.6,347.7,611.5,347.7z"/>
		<path class="st2" d="M646.8,318.8h-70.6c-1.5,0-2.7,1.2-2.7,2.7v5h76v-5C649.5,320.1,648.3,318.8,646.8,318.8z"/>
		<rect x="573.5" y="330.4" class="st2" width="76" height="5"/>
	</g>
	<g id="Zündkerze">
		<path class="st2" d="M452.5,470.3h16c0.6,0,1-0.4,1-1v-6c0-0.6-0.4-1-1-1h-1.6c-0.6,0-1-0.4-1-1v-6c0-0.6,0.4-1,1-1h1.6
			c0.6,0,1-0.4,1-1v-7c0-0.6-0.4-1-1-1h-1.6c-0.6,0-1-0.4-1-1c0-0.6-0.4-1-1-1h-8.8c-0.6,0-1,0.4-1,1c0,0.6-0.4,1-1,1h-1.6
			c-0.6,0-1,0.4-1,1v7c0,0.6,0.4,1,1,1h1.6c0.6,0,1,0.4,1,1v6c0,0.6-0.4,1-1,1h-1.6c-0.6,0-1,0.4-1,1v6
			C451.5,469.9,452,470.3,452.5,470.3z"/>
		<polygon class="st2" points="460.5,611.3 445,611.3 445,616.3 460.5,616.3 460.5,616.3 476,616.3 476,611.3 460.5,611.3 		"/>
		<polygon class="st2" points="460.5,603.3 445,603.3 445,608.3 460.5,608.3 460.5,608.3 476,608.3 476,603.3 460.5,603.3 		"/>
		<polygon class="st2" points="460.5,498.3 476,498.3 476,490.3 460.5,490.3 460.5,490.3 445.1,490.3 445.1,498.3 460.5,498.3 		"/>
		<polygon class="st2" points="460.5,595 445.1,595 445.1,600 460.5,600 460.5,600 476,600 476,595 460.5,595 		"/>
		<path class="st2" d="M460.5,487.3H476v-11.5c0-1.4-1.1-2.5-2.5-2.5h-13h0h-13c-1.4,0-2.5,1.1-2.5,2.5v11.5H460.5L460.5,487.3z"/>
		<polygon class="st2" points="460.5,510.3 476,510.3 476,501.3 460.5,501.3 460.5,501.3 445.1,501.3 445.1,510.3 460.5,510.3 		"/>
		<path class="st2" d="M460.5,619.3H445v8h1.5v12.5c0,1.4,1.1,2.5,2.5,2.5h1.5h13v-1.5c0-1.4-1.1-2.5-2.5-2.5h-8
			c-1.4,0-2.5-1.1-2.5-2.5v-8.5h3.5c0,3.6,2.9,6.5,6.5,6.5s6.5-2.9,6.5-6.5h9v-8H460.5L460.5,619.3z"/>
		<path class="st2" d="M486,567.1v-14l-9.1-8.1c-0.5-0.5-0.8-1.2-0.8-1.9v-18.9h-15.4h0h-15.4v18.9c0,0.7-0.3,1.4-0.8,1.9l-9.1,8.1
			v14l4.9,3.2c0.7,0.5,1.1,1.2,1.1,2.1v5.6h-4v10l6.5,0.1c0.8,0,1.5,0.7,1.5,1.5v2.4h15.4h0H476v-2.4c0-0.8,0.7-1.5,1.5-1.5l6.5-0.1
			v-10h-4v-5.6c0-0.8,0.4-1.6,1.1-2.1L486,567.1z"/>
		<polygon class="st2" points="460.5,521.2 476,521.2 476,513.3 460.5,513.3 460.5,513.3 445.1,513.3 445.1,521.2 460.5,521.2 		"/>
	</g>
	<g id="Batterie">
		<rect x="247.4" y="432.5" class="st2" width="124.3" height="6.6"/>
		<polygon class="st2" points="370,350.5 363.5,350.5 363.5,343.5 356.5,343.5 356.5,350.5 262.5,350.5 262.5,343.5 255.5,343.5 
			255.5,350.5 249,350.5 249,352.5 370,352.5 		"/>
		<path class="st2" d="M247.4,356.2v7h1.7v65.7h121v-65.7h1.7v-7H247.4z M279.5,396c0-16.6,13.4-30,30-30c0.2,0,0.3,0,0.5,0
			l-1.6,2.5c-14.6,0.6-26.3,12.7-26.3,27.5c0,10,5.4,18.8,13.4,23.6l-1.3,2.1C285.4,416.5,279.5,406.9,279.5,396z M309,400.8h-19.1
			l23.4-36.1h14.6l-22.1,27.6h23.4l-36.1,35.1L309,400.8z M309.5,426c-3.6,0-7.1-0.6-10.3-1.8l2-2c2.6,0.8,5.4,1.3,8.3,1.3
			c15.2,0,27.5-12.3,27.5-27.5c0-9.9-5.2-18.5-13-23.3l1.6-2c8.4,5.3,13.9,14.7,13.9,25.3C339.5,412.6,326.1,426,309.5,426z"/>
	</g>
</g>
<rect x="12" y="12" class="st3" width="1000" height="1000"/>
</svg>
