<?xml version="1.0" encoding="utf-8"?>
<!-- Generator: Adobe Illustrator 25.2.1, SVG Export Plug-In . SVG Version: 6.00 Build 0)  -->
<svg version="1.1" id="Ebene_1" xmlns="http://www.w3.org/2000/svg" xmlns:xlink="http://www.w3.org/1999/xlink" x="0px" y="0px"
	 viewBox="0 0 2048 1024" style="enable-background:new 0 0 2048 1024;" xml:space="preserve">
<style type="text/css">
	.st0{fill:#FF4400;}
	.st1{fill:#ffffff;}
	.st2{fill:#404040;}
</style>
<g>
	<g>
		<path class="st0" d="M1249.5,893C643,910.7,149.2,839.4,146.5,733.7c-1.2-48.9,103-96.6,275.4-135.4l-2.7-2.7
			C193.5,637.8,52,693.8,53.5,751.6c2.7,107.2,496.5,179.9,1103,162.2c336.9-9.8,637.7-45.4,838-93.5
			C1799.4,857.6,1537.7,884.6,1249.5,893z"/>
		<path class="st1" d="M1151.2,843.6c-453.3,0-820.7-60.4-820.7-134.9c0-26.8,47.4-51.7,129.2-72.7l-3.6-3.6
			c-140,24.2-225.9,56.9-225.9,92.9c0,74.5,367.4,134.9,820.7,134.9c253.5,0,480.2-18.9,630.8-48.6
			C1538.5,831.6,1353.4,843.6,1151.2,843.6z"/>
		
			<rect x="408.4" y="449.4" transform="matrix(0.7071 -0.7071 0.7071 0.7071 -236.8738 514.065)" class="st1" width="187.4" height="187.1"/>
		
			<rect x="408.4" y="146.4" transform="matrix(0.7071 -0.7071 0.7071 0.7071 -22.6204 425.3184)" class="st1" width="187.4" height="187.1"/>
		
			<rect x="559.4" y="298.4" transform="matrix(0.7071 -0.7071 0.7071 0.7071 -85.8738 576.6113)" class="st0" width="187.4" height="187.1"/>
		
			<rect x="257.4" y="298.4" transform="matrix(0.7071 -0.7071 0.7071 0.7071 -174.3276 363.065)" class="st0" width="187.4" height="187.1"/>
	</g>
	<g id="Rad">
		<path class="st2" d="M502,169.3c-39.8,0-72,32.2-72,72s32.2,72,72,72s72-32.2,72-72S541.8,169.3,502,169.3z M502,298.8
			c-31.8,0-57.5-25.7-57.5-57.5s25.7-57.5,57.5-57.5s57.5,25.7,57.5,57.5S533.8,298.8,502,298.8z"/>
		<circle class="st2" cx="502" cy="241.3" r="53.5"/>
		<path class="st1" d="M502,223.3c0.7,0,1.4,0,2,0.1l16.7-28.9c-5.8-2.3-12.1-3.6-18.7-3.6s-12.9,1.3-18.7,3.6l16.7,28.9
			C500.6,223.4,501.3,223.3,502,223.3z"/>
		<path class="st1" d="M518.5,234.1h33.4c-1.9-13.1-8.8-24.6-18.7-32.4l-16.7,28.9C517.3,231.7,518,232.9,518.5,234.1z"/>
		<circle class="st1" cx="502" cy="241.3" r="16.2"/>
		<path class="st1" d="M502,259.3c-0.7,0-1.4,0-2-0.1l-16.7,28.9c5.8,2.3,12.1,3.6,18.7,3.6s12.9-1.3,18.7-3.6L504,259.2
			C503.4,259.3,502.7,259.3,502,259.3z"/>
		<path class="st1" d="M487.5,230.7l-16.7-28.9c-9.9,7.8-16.8,19.3-18.7,32.4h33.4C486,232.9,486.7,231.7,487.5,230.7z"/>
		<path class="st1" d="M516.5,252l16.7,28.9c9.9-7.8,16.8-19.3,18.7-32.4h-33.4C518,249.8,517.3,250.9,516.5,252z"/>
		<path class="st1" d="M485.5,248.5h-33.4c1.9,13.1,8.8,24.6,18.7,32.4l16.7-28.9C486.7,250.9,486,249.8,485.5,248.5z"/>
	</g>
	<g id="Kolben">
		<path class="st2" d="M615,387.6c0,1.5,1.2,2.7,2.7,2.7h4.5c4.7-6.6,11.4-11.6,19.2-14.1l-4.7,44.9c-3.2,2.4-5.8,5.4-7.6,8.9h-7.8
			v25.4h7.8c4.5,8.5,13.5,14.3,23.9,14.3s19.3-5.8,23.9-14.3h7.8v-25.4h-7.8c-1.9-3.5-4.5-6.5-7.6-8.9l-4.7-45
			c8,2.5,14.8,7.6,19.5,14.2h4.2c1.5,0,2.7-1.2,2.7-2.7v-48.4h-76V387.6z M673.3,442.8c0,11.2-9.1,20.3-20.3,20.3
			s-20.3-9.1-20.3-20.3c0-11.2,9.1-20.3,20.3-20.3S673.3,431.6,673.3,442.8z M653,347.7c6,0,10.8,4.8,10.8,10.8s-4.8,10.8-10.8,10.8
			c-6,0-10.8-4.8-10.8-10.8S647,347.7,653,347.7z"/>
		<path class="st2" d="M688.3,318.8h-70.6c-1.5,0-2.7,1.2-2.7,2.7v5h76v-5C691,320.1,689.8,318.8,688.3,318.8z"/>
		<rect x="615" y="330.4" class="st2" width="76" height="5"/>
	</g>
	<g id="Zündkerze">
		<path class="st2" d="M494,470.3h16c0.6,0,1-0.4,1-1v-6c0-0.6-0.4-1-1-1h-1.6c-0.6,0-1-0.4-1-1v-6c0-0.6,0.4-1,1-1h1.6
			c0.6,0,1-0.4,1-1v-7c0-0.6-0.4-1-1-1h-1.6c-0.6,0-1-0.4-1-1c0-0.6-0.4-1-1-1h-8.8c-0.6,0-1,0.4-1,1c0,0.6-0.4,1-1,1H494
			c-0.6,0-1,0.4-1,1v7c0,0.6,0.4,1,1,1h1.6c0.6,0,1,0.4,1,1v6c0,0.6-0.4,1-1,1H494c-0.6,0-1,0.4-1,1v6
			C493,469.9,493.4,470.3,494,470.3z"/>
		<polygon class="st2" points="502,611.3 486.5,611.3 486.5,616.3 502,616.3 502,616.3 517.5,616.3 517.5,611.3 502,611.3 		"/>
		<polygon class="st2" points="502,603.3 486.5,603.3 486.5,608.3 502,608.3 502,608.3 517.5,608.3 517.5,603.3 502,603.3 		"/>
		<polygon class="st2" points="502,498.3 517.4,498.3 517.4,490.3 502,490.3 502,490.3 486.6,490.3 486.6,498.3 502,498.3 		"/>
		<polygon class="st2" points="502,595 486.6,595 486.6,600 502,600 502,600 517.4,600 517.4,595 502,595 		"/>
		<path class="st2" d="M502,487.3h15.5v-11.5c0-1.4-1.1-2.5-2.5-2.5h-13h0h-13c-1.4,0-2.5,1.1-2.5,2.5v11.5H502L502,487.3z"/>
		<polygon class="st2" points="502,510.3 517.4,510.3 517.4,501.3 502,501.3 502,501.3 486.6,501.3 486.6,510.3 502,510.3 		"/>
		<path class="st2" d="M502,619.3h-15.5v8h1.5v12.5c0,1.4,1.1,2.5,2.5,2.5h1.5h13v-1.5c0-1.4-1.1-2.5-2.5-2.5h-8
			c-1.4,0-2.5-1.1-2.5-2.5v-8.5h3.5c0,3.6,2.9,6.5,6.5,6.5s6.5-2.9,6.5-6.5h9v-8H502L502,619.3z"/>
		<path class="st2" d="M527.4,567.1v-14l-9.1-8.1c-0.5-0.5-0.8-1.2-0.8-1.9v-18.9H502h0h-15.4v18.9c0,0.7-0.3,1.4-0.8,1.9l-9.1,8.1
			v14l4.9,3.2c0.7,0.5,1.1,1.2,1.1,2.1v5.6h-4v10l6.5,0.1c0.8,0,1.5,0.7,1.5,1.5v2.4H502h0h15.4v-2.4c0-0.8,0.7-1.5,1.5-1.5l6.5-0.1
			v-10h-4v-5.6c0-0.8,0.4-1.6,1.1-2.1L527.4,567.1z"/>
		<polygon class="st2" points="502,521.2 517.4,521.2 517.4,513.3 502,513.3 502,513.3 486.6,513.3 486.6,521.2 502,521.2 		"/>
	</g>
	<g id="Batterie">
		<rect x="288.8" y="432.5" class="st2" width="124.3" height="6.6"/>
		<polygon class="st2" points="411.5,350.5 405,350.5 405,343.5 398,343.5 398,350.5 304,350.5 304,343.5 297,343.5 297,350.5 
			290.5,350.5 290.5,352.5 411.5,352.5 		"/>
		<path class="st2" d="M288.8,356.2v7h1.7v65.7h121v-65.7h1.7v-7H288.8z M321,396c0-16.6,13.4-30,30-30c0.2,0,0.3,0,0.5,0l-1.6,2.5
			c-14.6,0.6-26.3,12.7-26.3,27.5c0,10,5.4,18.8,13.4,23.6l-1.3,2.1C326.8,416.5,321,406.9,321,396z M350.5,400.8h-19.1l23.4-36.1
			h14.6l-22.1,27.6h23.4l-36.1,35.1L350.5,400.8z M351,426c-3.6,0-7.1-0.6-10.3-1.8l2-2c2.6,0.8,5.4,1.3,8.3,1.3
			c15.2,0,27.5-12.3,27.5-27.5c0-9.9-5.2-18.5-13-23.3l1.6-2c8.4,5.3,13.9,14.7,13.9,25.3C381,412.6,367.6,426,351,426z"/>
	</g>
	<g>
		<g>
			<path class="st0" d="M815.2,583.8h-23.9l9.9-46.4l-25.5,46.4h-14.6l-4.8-48l-10.3,48h-9.7l14.5-68.3h27.4l3.3,38.5l20.6-38.5
				h27.6L815.2,583.8z"/>
			<path class="st0" d="M847.7,583.8h-21.8l9.8-46.2h22L847.7,583.8z M860.5,523.5c0,1.6-0.3,3.1-1,4.3c-0.7,1.2-1.6,2.3-2.7,3.1
				c-1.1,0.9-2.4,1.5-3.8,1.9c-1.4,0.4-2.9,0.6-4.4,0.6c-2.9,0-5.3-0.7-7.2-2c-1.9-1.4-2.9-3.5-2.9-6.4c0-1.6,0.3-3,1-4.2
				c0.6-1.3,1.5-2.3,2.6-3.1c1.1-0.8,2.4-1.5,3.9-1.9c1.5-0.4,3-0.6,4.6-0.6c2.8,0,5.2,0.7,7.1,2
				C859.6,518.5,860.5,520.6,860.5,523.5z"/>
			<path class="st0" d="M881.9,562.2c-0.3,1.6-0.5,3.1-0.6,4.5c-0.1,1.4-0.2,2.7-0.2,3.9c0,0.6,0,1.4,0.1,2.2
				c0.1,0.8,0.2,1.5,0.5,2.2c0.3,0.7,0.6,1.3,1.1,1.7c0.5,0.5,1.1,0.7,2,0.7c0.6,0,1.4-0.2,2.2-0.6c0.8-0.4,1.6-1,2.5-1.8
				c0.8-0.8,1.6-1.8,2.4-2.9c0.8-1.1,1.3-2.4,1.8-3.9h17.6l-2.8,11.5c-1.4,0.9-3.1,1.7-4.9,2.4c-1.9,0.6-3.8,1.2-5.9,1.6
				c-2.1,0.4-4.2,0.7-6.3,0.9c-2.1,0.2-4.2,0.3-6.1,0.3c-3.6,0-6.9-0.3-10-1c-3.1-0.6-5.8-1.8-8.1-3.3c-2.3-1.6-4.1-3.7-5.4-6.3
				c-1.3-2.6-2-5.9-2-9.7c0-3.5,0.6-6.9,1.7-10.3c1.1-3.4,3-6.4,5.6-9c2.6-2.6,6.1-4.7,10.5-6.3c4.4-1.6,9.9-2.4,16.5-2.4
				c7.2,0,12.6,1.1,16.2,3.3c3.6,2.2,5.4,5.7,5.4,10.4c0,1.9-0.3,4-0.9,6.3c-0.6,2.3-1.4,4.2-2.6,5.8H881.9z M896.2,549.4
				c0-2.2-0.4-3.7-1.1-4.5c-0.7-0.8-1.6-1.2-2.6-1.2c-1.1,0-2.2,0.4-3.2,1.1c-1,0.8-1.8,1.8-2.6,3c-0.8,1.3-1.5,2.7-2.1,4.3
				s-1.2,3.3-1.6,5.1h12.3c0.1-0.9,0.3-1.8,0.4-2.7c0.1-0.8,0.3-1.6,0.4-2.6C896.2,551.1,896.2,550.2,896.2,549.4z"/>
			<path class="st0" d="M921.7,537.6c2.6-0.6,5-1.2,7-1.9c2-0.7,3.9-1.6,5.5-2.7c1.7-1.1,3.3-2.4,4.8-4c1.5-1.6,3.2-3.5,5-5.8h11.1
				l-3.1,14.4h8.4l-1.4,7.2h-8.5l-4.4,21c-0.4,1.6-0.6,3.1-0.9,4.4c-0.2,1.3-0.3,2.3-0.3,3c0,1.4,0.5,2.3,1.6,2.7
				c1,0.4,3,0.5,5.9,0.5l-1.6,7.4c-0.5,0.1-1.3,0.2-2.3,0.3c-1,0.1-2.2,0.2-3.4,0.3c-1.3,0.1-2.5,0.2-3.9,0.2
				c-1.3,0-2.5,0.1-3.5,0.1c-1.8,0-3.5-0.1-5.3-0.4c-1.7-0.3-3.3-0.8-4.6-1.5c-1.4-0.8-2.5-1.8-3.3-3.3c-0.8-1.4-1.2-3.4-1.2-5.8
				c0-0.9,0.1-1.9,0.2-3.2c0.1-1.3,0.3-2.7,0.7-4.3l4.5-21.4h-8.4L921.7,537.6z"/>
			<path class="st0" d="M962.5,537.6h22.8l3.8,31.6l13-31.6h20.5l3.7,31.6l13-31.6h11.4l-21.4,46.2h-22.5l-4-23.4L992,583.8h-22.5
				L962.5,537.6z"/>
			<path class="st0" d="M1071.1,562.2c-0.3,1.6-0.5,3.1-0.6,4.5c-0.1,1.4-0.2,2.7-0.2,3.9c0,0.6,0,1.4,0.1,2.2
				c0.1,0.8,0.2,1.5,0.5,2.2c0.2,0.7,0.6,1.3,1.1,1.7c0.5,0.5,1.1,0.7,2,0.7c0.6,0,1.4-0.2,2.2-0.6c0.8-0.4,1.6-1,2.5-1.8
				c0.8-0.8,1.6-1.8,2.4-2.9c0.8-1.1,1.3-2.4,1.8-3.9h17.6l-2.8,11.5c-1.4,0.9-3.1,1.7-4.9,2.4c-1.9,0.6-3.8,1.2-5.9,1.6
				c-2.1,0.4-4.2,0.7-6.3,0.9c-2.1,0.2-4.2,0.3-6.1,0.3c-3.6,0-6.9-0.3-10-1c-3.1-0.6-5.8-1.8-8.1-3.3c-2.3-1.6-4.1-3.7-5.4-6.3
				c-1.3-2.6-2-5.9-2-9.7c0-3.5,0.6-6.9,1.7-10.3c1.1-3.4,3-6.4,5.6-9c2.6-2.6,6.1-4.7,10.5-6.3c4.4-1.6,9.9-2.4,16.5-2.4
				c7.2,0,12.6,1.1,16.2,3.3c3.6,2.2,5.4,5.7,5.4,10.4c0,1.9-0.3,4-0.9,6.3s-1.4,4.2-2.6,5.8H1071.1z M1085.4,549.4
				c0-2.2-0.4-3.7-1.1-4.5c-0.7-0.8-1.6-1.2-2.6-1.2c-1.1,0-2.2,0.4-3.2,1.1c-1,0.8-1.8,1.8-2.6,3c-0.8,1.3-1.5,2.7-2.1,4.3
				s-1.2,3.3-1.6,5.1h12.3c0.1-0.9,0.3-1.8,0.4-2.7c0.1-0.8,0.3-1.6,0.4-2.6C1085.3,551.1,1085.4,550.2,1085.4,549.4z"/>
			<path class="st0" d="M1115.2,537.6h17.5l1.6,8.1h0.8c1.6-2.6,3.8-4.8,6.3-6.6c2.6-1.8,6-2.7,10.2-2.7c0.3,0,0.7,0,1.3,0.1
				c0.6,0,1.3,0.1,2,0.3c0.8,0.2,1.5,0.4,2.4,0.8c0.8,0.3,1.6,0.8,2.4,1.3L1155,561h-11.7c-0.1-4.4-0.5-7.5-1.2-9.3
				c-0.6-1.8-1.7-2.6-3.1-2.6c-0.7,0-1.5,0.2-2.3,0.5c-0.8,0.3-1.7,1-2.5,2.1l-6.9,32.1h-21.9L1115.2,537.6z"/>
			<path class="st0" d="M1184.9,557.1l25-19.6h14.2l-21.4,17.5l16,28.7h-24.1l-11-21.6l-4.5,21.6h-21.9l15.3-72.2h22L1184.9,557.1z"
				/>
			<path class="st0" d="M1255.7,551.1c0.1-0.4,0.1-0.7,0.2-1.1c0.1-0.4,0.1-0.8,0.1-1.2c0-1.3-0.2-2.5-0.7-3.6
				c-0.5-1.1-1.4-1.7-2.7-1.7c-1.2,0-2.4,0.5-3.7,1.6c-1.2,1-1.8,2.4-1.8,4.1c0,1.1,0.3,2.1,0.9,2.7c0.6,0.7,1.4,1.2,2.4,1.7
				c1,0.4,2.1,0.8,3.4,1.1c1.3,0.3,2.5,0.6,3.7,0.9c1.7,0.4,3.3,1,4.9,1.6c1.5,0.6,2.9,1.4,4.1,2.4c1.2,1,2.2,2.2,2.9,3.7
				c0.7,1.5,1.1,3.3,1.1,5.4c0,3-0.7,5.5-2.1,7.6s-3.3,3.7-5.8,4.9c-2.5,1.3-5.4,2.1-8.7,2.6c-3.3,0.5-6.9,0.8-10.7,0.8
				c-5.8,0-10.6-0.4-14.4-1.3c-3.8-0.9-6.4-1.7-8-2.5l2.3-10.7h14.5c-0.1,0.4-0.1,0.7-0.1,1s0,0.7,0,1c0,1.6,0.4,3,1.1,3.9
				c0.8,1,2.1,1.5,3.9,1.5c2.1,0,3.6-0.6,4.5-1.8c0.9-1.2,1.3-2.3,1.3-3.3c0-1-0.4-1.9-1.1-2.6c-0.8-0.8-1.7-1.4-2.8-1.9
				c-1.1-0.5-2.4-1-3.8-1.4c-1.4-0.4-2.7-0.8-4-1.1c-0.9-0.2-2-0.6-3.2-1.1c-1.2-0.5-2.3-1.2-3.4-2.1c-1.1-0.9-2-2.1-2.7-3.6
				c-0.7-1.5-1.1-3.3-1.1-5.5c0-3.2,0.8-5.8,2.3-7.9c1.5-2.1,3.5-3.8,6-5.1c2.5-1.3,5.3-2.2,8.4-2.8c3.1-0.6,6.3-0.9,9.4-0.9
				c3.9,0,7.7,0.4,11.2,1.1c3.5,0.7,6.4,1.6,8.6,2.8l-2.5,10.9H1255.7z"/>
			<path class="st0" d="M1279.2,537.6c2.7-0.6,5-1.2,7-1.9c2-0.7,3.9-1.6,5.5-2.7c1.7-1.1,3.3-2.4,4.8-4c1.5-1.6,3.2-3.5,5-5.8h11.1
				l-3.1,14.4h8.4l-1.4,7.2h-8.5l-4.4,21c-0.4,1.6-0.6,3.1-0.9,4.4s-0.3,2.3-0.3,3c0,1.4,0.5,2.3,1.6,2.7c1,0.4,3,0.5,5.9,0.5
				l-1.6,7.4c-0.5,0.1-1.3,0.2-2.3,0.3c-1,0.1-2.2,0.2-3.4,0.3c-1.3,0.1-2.5,0.2-3.9,0.2c-1.3,0-2.5,0.1-3.5,0.1
				c-1.8,0-3.5-0.1-5.3-0.4c-1.7-0.3-3.3-0.8-4.6-1.5c-1.4-0.8-2.5-1.8-3.3-3.3c-0.8-1.4-1.2-3.4-1.2-5.8c0-0.9,0.1-1.9,0.2-3.2
				c0.1-1.3,0.3-2.7,0.7-4.3l4.5-21.4h-8.4L1279.2,537.6z"/>
			<path class="st0" d="M1324.1,541.6c3.7-1.8,7.4-3.1,11.2-3.9c3.8-0.8,8.1-1.2,12.8-1.2c4.6,0,8.4,0.4,11.4,1.1
				c3,0.7,5.4,1.8,7.2,3.1c1.8,1.4,3,3,3.8,4.8c0.7,1.9,1.1,4,1.1,6.3c0,1.4-0.1,2.8-0.3,4.4c-0.2,1.6-0.4,2.9-0.6,4l-5.1,23.6
				h-17.3l-1.9-6.9h-0.6c-2.3,2.5-5,4.4-8,5.8c-3,1.3-6.1,2-9.1,2c-1.7,0-3.4-0.3-5.1-0.8c-1.6-0.5-3.1-1.3-4.4-2.3
				c-1.3-1-2.3-2.4-3.1-4c-0.8-1.6-1.2-3.6-1.2-5.9c0-3.7,1-6.7,3.1-8.9c2-2.2,4.7-3.8,8.1-4.9c3.3-1.1,7.1-1.8,11.3-2.1
				c4.2-0.3,8.4-0.4,12.6-0.4c0.1-0.7,0.3-1.7,0.5-3.1c0.2-1.3,0.3-2.5,0.3-3.5c0-1.3-0.3-2.5-1-3.6c-0.7-1.1-2.1-1.7-4.2-1.7
				c-2.5,0-4.4,0.7-5.5,2.2c-1.2,1.5-2,3.2-2.3,5.3h-15.7L1324.1,541.6z M1348.8,560.5h-1.9c-2.1,0-3.9,0.3-5.3,0.8
				c-1.5,0.5-2.7,1.2-3.5,2.1c-0.9,0.9-1.6,1.8-2,2.9c-0.4,1.1-0.6,2.1-0.6,3.2c0,1.7,0.4,3,1.3,3.9c0.9,0.9,2,1.3,3.2,1.3
				c1.5,0,3-0.5,4.5-1.6s2.4-2.5,2.7-4.3L1348.8,560.5z"/>
			<path class="st0" d="M1403.3,565.7c-0.4,1.6-0.6,3.1-0.9,4.4s-0.3,2.3-0.3,3c0,1.4,0.5,2.3,1.6,2.7c1,0.4,3,0.5,5.9,0.5l-1.6,7.4
				c-0.5,0.1-1.3,0.2-2.3,0.3c-1,0.1-2.2,0.2-3.4,0.3c-1.3,0.1-2.5,0.2-3.9,0.2c-1.3,0-2.5,0.1-3.5,0.1c-1.8,0-3.5-0.1-5.3-0.4
				c-1.7-0.3-3.3-0.8-4.6-1.5c-1.4-0.8-2.5-1.8-3.3-3.3c-0.8-1.4-1.2-3.4-1.2-5.8c0-0.9,0.1-1.9,0.2-3.2c0.1-1.3,0.3-2.7,0.7-4.3
				l4.5-21.4h-8.4l1.5-7.2c2.7-0.6,5-1.2,7-1.9c2-0.7,3.9-1.6,5.5-2.7c1.7-1.1,3.3-2.4,4.8-4c1.5-1.6,3.2-3.5,5-5.8h11.1l-3.1,14.4
				h5.3c2.7,0,5.1-0.3,7.1-1c2-0.6,3.8-1.6,5.5-2.8c1.6-1.2,3.2-2.7,4.8-4.5c1.5-1.8,3.2-3.8,5-6.1h11.1l-3.1,14.4h8.4l-1.4,7.2
				h-8.5l-4.4,21c-0.4,1.6-0.6,3.1-0.9,4.4s-0.3,2.3-0.3,3c0,1.4,0.5,2.3,1.6,2.7c1,0.4,3,0.5,5.9,0.5l-1.6,7.4
				c-0.5,0.1-1.3,0.2-2.3,0.3c-1,0.1-2.2,0.2-3.4,0.3c-1.3,0.1-2.5,0.2-3.9,0.2c-1.3,0-2.5,0.1-3.5,0.1c-1.8,0-3.5-0.1-5.3-0.4
				c-1.7-0.3-3.3-0.8-4.6-1.5c-1.4-0.8-2.5-1.8-3.3-3.3c-0.8-1.4-1.2-3.4-1.2-5.8c0-0.9,0.1-1.9,0.2-3.2c0.1-1.3,0.3-2.7,0.7-4.3
				l4.5-21.4h-13.7L1403.3,565.7z"/>
			<path class="st1" d="M1539.2,531.8c0,4.2-1.2,8.1-3.5,11.7c-2.4,3.6-6.3,6.3-11.7,8.2l12.5,32.1h-24L1503,554h-1.2l-6.3,29.8
				h-23.2l14.5-68.3h28.3c3.3,0,6.4,0.2,9.4,0.6c2.9,0.4,5.5,1.2,7.7,2.4c2.2,1.2,3.9,2.8,5.2,4.9
				C1538.5,525.6,1539.2,528.3,1539.2,531.8z M1508.2,547.1c1.9,0,3.5-0.6,4.8-1.9c1.3-1.3,2.4-2.8,3.2-4.6c0.8-1.8,1.4-3.7,1.8-5.8
				c0.4-2,0.5-3.8,0.5-5.3c0-1.9-0.3-3.5-1-4.8c-0.6-1.3-2-2-4.2-2h-4.8l-5.4,24.3H1508.2z"/>
			<path class="st1" d="M1572.2,536.4c8.5,0,14.7,1.5,18.6,4.5c4.1,3.2,6.1,8.4,6.1,15.7c0,4.5-0.8,8.6-2.3,12.2
				c-1.5,3.6-3.6,6.6-6.3,9c-5.4,4.6-13.3,6.9-23.6,6.9c-8.8,0-15.1-1.7-18.9-5.1c-4.1-3.5-6.1-8.8-6.1-15.8c0-4.7,0.9-8.9,2.8-12.7
				c1.9-3.8,4.6-6.9,8.2-9.5C1555.9,538.2,1563.1,536.4,1572.2,536.4z M1564.9,577.4c1.8,0,3.3-1,4.7-3c1.3-2,2.4-4.5,3.2-7.4
				c0.8-2.9,1.4-5.9,1.8-9c0.4-3.1,0.6-5.8,0.6-8.1c0-2-0.2-3.5-0.6-4.6c-0.4-1-1.2-1.6-2.5-1.6c-1.9,0-3.6,1-5,3.1
				c-1.4,2.1-2.5,4.6-3.4,7.4c-0.9,2.9-1.5,5.8-1.9,8.8c-0.4,3-0.6,5.4-0.6,7.3C1561.1,575,1562.4,577.4,1564.9,577.4z"/>
			<path class="st1" d="M1667.4,567.5c0,2.9-0.6,5.4-1.9,7.5c-1.3,2.1-3,3.9-5.2,5.4c-2.2,1.4-4.7,2.5-7.6,3.2
				c-2.9,0.7-6,1.1-9.3,1.1c-2.4,0-4.4-0.2-6-0.5c-1.6-0.3-3.1-0.8-4.2-1.3c-1.2-0.5-2.2-1.1-3.1-1.8c-0.9-0.6-1.7-1.3-2.5-1.9
				l4.7-5.8c0.8,0.9,1.9,1.9,3.4,2.8c1.5,0.9,3.1,1.4,5,1.4c1.8,0,3.4-0.5,4.9-1.5c1.5-1,2.2-2.3,2.2-4c0-1.1-0.3-2-0.9-2.8
				c-0.6-0.8-1.4-1.6-2.4-2.5c-1-0.8-2-1.6-3.2-2.4c-1.1-0.8-2.2-1.7-3.2-2.7c-2.1-2-3.5-4-4.1-5.9c-0.7-1.9-1-3.8-1-5.7
				c0-2.4,0.4-4.3,1.1-5.9c0.8-1.5,1.7-2.9,2.8-4c1.1-1.1,2.4-2.2,3.7-3.1c1.3-0.9,2.5-1.8,3.7-2.8c1.1-1,2.1-2.1,2.8-3.4
				c0.8-1.3,1.1-2.8,1.1-4.8c0-0.8-0.1-1.6-0.3-2.4c-0.2-0.8-0.5-1.5-1-2.1c-0.5-0.6-1.2-1.1-2.1-1.5c-0.9-0.4-2-0.6-3.4-0.6
				c-2.4,0-4.3,0.7-5.6,2c-1.3,1.3-2.3,3.5-2.8,6.4l-11.9,55.9H1599l10.6-50.6c0.9-4.4,2.3-8,4.1-11c1.8-2.9,4.1-5.3,6.7-7.1
				c2.7-1.8,5.7-3,9.1-3.8c3.4-0.7,7.1-1.1,11.2-1.1c3.1,0,6.3,0.2,9.6,0.6c3.3,0.4,6.3,1.2,9,2.2c2.7,1,4.9,2.4,6.7,4.1
				c1.8,1.7,2.6,3.8,2.6,6.4c0,2.7-0.9,5-2.7,6.9c-1.8,1.9-3.8,3.6-6,5.1c-2.2,1.5-4.2,2.9-6,4.2c-1.8,1.3-2.7,2.8-2.7,4.4
				c0,1.6,0.8,3,2.5,4.4c1.6,1.3,3.5,2.8,5.5,4.5c2,1.6,3.8,3.6,5.5,5.9C1666.6,561.1,1667.4,564,1667.4,567.5z"/>
			<path class="st1" d="M1691.9,583.8H1670l15.3-72.2h22L1691.9,583.8z"/>
			<path class="st1" d="M1726,562.2c-0.3,1.6-0.5,3.1-0.6,4.5c-0.1,1.4-0.2,2.7-0.2,3.9c0,0.6,0,1.4,0.1,2.2
				c0.1,0.8,0.2,1.5,0.5,2.2c0.2,0.7,0.6,1.3,1.1,1.7c0.5,0.5,1.1,0.7,2,0.7c0.6,0,1.4-0.2,2.2-0.6c0.8-0.4,1.6-1,2.5-1.8
				c0.8-0.8,1.6-1.8,2.4-2.9c0.8-1.1,1.3-2.4,1.8-3.9h17.6l-2.8,11.5c-1.4,0.9-3.1,1.7-4.9,2.4c-1.9,0.6-3.8,1.2-5.9,1.6
				c-2.1,0.4-4.2,0.7-6.3,0.9c-2.1,0.2-4.2,0.3-6.1,0.3c-3.6,0-6.9-0.3-10-1c-3.1-0.6-5.8-1.8-8.1-3.3c-2.3-1.6-4.1-3.7-5.4-6.3
				c-1.3-2.6-2-5.9-2-9.7c0-3.5,0.6-6.9,1.7-10.3c1.1-3.4,3-6.4,5.6-9c2.6-2.6,6.1-4.7,10.5-6.3c4.4-1.6,9.9-2.4,16.5-2.4
				c7.2,0,12.6,1.1,16.2,3.3c3.6,2.2,5.4,5.7,5.4,10.4c0,1.9-0.3,4-0.9,6.3c-0.6,2.3-1.4,4.2-2.6,5.8H1726z M1740.3,549.4
				c0-2.2-0.4-3.7-1.1-4.5c-0.7-0.8-1.6-1.2-2.6-1.2c-1.1,0-2.2,0.4-3.2,1.1c-1,0.8-1.8,1.8-2.6,3c-0.8,1.3-1.5,2.7-2.2,4.3
				c-0.6,1.6-1.2,3.3-1.6,5.1h12.3c0.1-0.9,0.3-1.8,0.4-2.7c0.1-0.8,0.3-1.6,0.4-2.6C1740.2,551.1,1740.3,550.2,1740.3,549.4z"/>
			<path class="st1" d="M1777.7,583.8h-17.4l15.3-72.2h22l-7,32.9h0.8c2.4-2.7,5-4.7,8-5.9c3-1.2,5.9-1.8,8.9-1.8
				c2.5,0,4.6,0.4,6.3,1.1c1.7,0.8,3,1.8,4,3.1c1,1.3,1.7,2.8,2.1,4.6c0.4,1.8,0.6,3.7,0.6,5.7c0,1-0.1,2.5-0.2,4.5
				c-0.1,2-0.5,4.2-1,6.7c-0.5,2.5-1.2,5-2.2,7.6c-0.9,2.6-2.2,5-3.7,7.1c-1.5,2.2-3.5,3.9-5.8,5.3c-2.3,1.4-5.1,2-8.3,2
				c-1.9,0-3.8-0.2-5.6-0.6c-1.8-0.4-3.5-1-4.9-1.7c-1.5-0.7-2.8-1.6-3.9-2.5c-1.1-1-1.9-2-2.4-3h-0.8L1777.7,583.8z M1789.8,574.2
				c1.7,0,3.2-0.9,4.3-2.7c1.1-1.8,2.1-4,2.8-6.4c0.7-2.5,1.2-4.9,1.6-7.4c0.3-2.5,0.5-4.3,0.5-5.5c0-1.4-0.2-2.6-0.7-3.5
				c-0.5-0.9-1.3-1.4-2.5-1.4c-1.4,0-2.8,0.5-4,1.6c-1.2,1-2.1,1.9-2.7,2.6l-4.2,19.2c0.5,0.9,1.2,1.7,2,2.5
				C1787.7,573.8,1788.7,574.2,1789.8,574.2z"/>
			<path class="st1" d="M1847.7,562.2c-0.3,1.6-0.5,3.1-0.6,4.5c-0.1,1.4-0.2,2.7-0.2,3.9c0,0.6,0,1.4,0.1,2.2
				c0.1,0.8,0.2,1.5,0.5,2.2c0.2,0.7,0.6,1.3,1.1,1.7c0.5,0.5,1.1,0.7,2,0.7c0.6,0,1.4-0.2,2.2-0.6c0.8-0.4,1.6-1,2.5-1.8
				c0.8-0.8,1.6-1.8,2.4-2.9c0.8-1.1,1.3-2.4,1.8-3.9h17.6l-2.8,11.5c-1.4,0.9-3.1,1.7-4.9,2.4c-1.9,0.6-3.8,1.2-5.9,1.6
				c-2.1,0.4-4.2,0.7-6.3,0.9c-2.1,0.2-4.2,0.3-6.1,0.3c-3.6,0-6.9-0.3-10-1c-3.1-0.6-5.8-1.8-8.1-3.3c-2.3-1.6-4.1-3.7-5.4-6.3
				c-1.3-2.6-2-5.9-2-9.7c0-3.5,0.6-6.9,1.7-10.3c1.1-3.4,3-6.4,5.6-9c2.6-2.6,6.1-4.7,10.5-6.3c4.4-1.6,9.9-2.4,16.5-2.4
				c7.2,0,12.6,1.1,16.2,3.3c3.6,2.2,5.4,5.7,5.4,10.4c0,1.9-0.3,4-0.9,6.3c-0.6,2.3-1.4,4.2-2.6,5.8H1847.7z M1861.9,549.4
				c0-2.2-0.4-3.7-1.1-4.5c-0.7-0.8-1.6-1.2-2.6-1.2c-1.1,0-2.2,0.4-3.2,1.1c-1,0.8-1.8,1.8-2.6,3c-0.8,1.3-1.5,2.7-2.2,4.3
				c-0.6,1.6-1.2,3.3-1.6,5.1h12.3c0.1-0.9,0.3-1.8,0.4-2.7c0.1-0.8,0.3-1.6,0.4-2.6C1861.9,551.1,1861.9,550.2,1861.9,549.4z"/>
			<path class="st1" d="M1911.8,544.5c1.5-1.4,3.2-2.8,5.1-4c1.6-1,3.6-1.9,5.8-2.8c2.2-0.9,4.7-1.3,7.4-1.3c3.7,0,6.8,1,9.2,2.8
				c2.4,1.9,3.7,4.5,3.7,7.8c0,0.9-0.1,2.1-0.3,3.4c-0.2,1.3-0.5,2.7-0.8,4.1c-0.3,1.4-0.6,2.9-0.9,4.4c-0.3,1.5-0.6,2.8-0.8,3.9
				l-4.5,21h-21.8l5.9-28.1c0.1-0.9,0.3-1.9,0.5-2.8s0.3-1.8,0.3-2.6c0-1.1-0.3-2-0.8-2.6c-0.5-0.7-1.3-1-2.4-1
				c-1.3,0-2.5,0.5-3.7,1.4c-1.2,0.9-2.1,1.7-2.7,2.4l-7.1,33.4h-21.9l9.8-46.2h17.5l1.9,6.9H1911.8z"/>
		</g>
		<g>
			<path class="st1" d="M1102.2,642.3l19.9-22.3h9.1l-18.1,19.6l12.3,31.7h-17.6l-7.1-22.5l-4.8,22.5h-17.4l10.9-51.2h17.5
				L1102.2,642.3z"/>
			<path class="st1" d="M1138.4,620h33.9l-1.3,6.1h-16.5l-3.1,14.8h13.8l-1.3,6.2h-13.8l-5.2,24.1h-17.4L1138.4,620z"/>
			<path class="st1" d="M1166.9,663.9l26.5-37.7h-20.3l1.2-6.1h39.8l-0.7,6.9l-26.3,38.2h21.2l-1.1,6.1h-41.8L1166.9,663.9z"/>
			<path class="st1" d="M1212.8,650.6h25.4l-1.6,7.3h-25.5L1212.8,650.6z"/>
			<path class="st1" d="M1273.9,634.9c0.2-0.8,0.2-1.9,0.2-3.3c0-0.8-0.1-1.6-0.2-2.4c-0.1-0.8-0.3-1.5-0.6-2.1
				c-0.3-0.6-0.7-1.1-1.2-1.5c-0.5-0.3-1.2-0.5-2.1-0.5c-1,0-1.9,0.2-2.7,0.6c-0.8,0.4-1.5,1-2.1,1.7c-0.6,0.7-1.1,1.5-1.5,2.3
				c-0.4,0.9-0.5,1.8-0.5,2.8c0,1.4,0.4,2.5,1.1,3.2c0.7,0.8,1.7,1.4,2.9,1.9c1.2,0.5,2.5,0.9,4,1.2c1.5,0.3,3.1,0.7,4.7,1.1
				c1.3,0.4,2.7,0.9,4,1.5c1.3,0.6,2.5,1.4,3.6,2.4c1,1,1.9,2.3,2.5,3.9c0.6,1.6,1,3.6,1,5.9c0,3.4-0.7,6.2-2,8.5
				c-1.3,2.3-3.2,4.2-5.6,5.6c-2.4,1.5-5.2,2.5-8.4,3.1c-3.3,0.6-6.8,1-10.6,1c-3.9,0-7-0.3-9.5-0.8c-2.4-0.5-4.4-1.1-5.8-1.7
				c-1.7-0.7-2.9-1.5-3.7-2.4l2.7-11h14.2c-0.1,0.5-0.1,1.1-0.2,2c-0.1,0.8-0.1,1.5-0.1,2c0,0.6,0.1,1.3,0.2,2
				c0.2,0.7,0.4,1.3,0.8,1.9c0.3,0.6,0.8,1.1,1.5,1.5c0.6,0.4,1.5,0.6,2.4,0.6c1.1,0,2-0.2,2.9-0.7c0.8-0.5,1.5-1.1,2.1-1.8
				c0.6-0.7,1-1.5,1.3-2.4c0.3-0.9,0.4-1.8,0.4-2.6c0-1.2-0.3-2.2-0.8-3c-0.6-0.8-1.3-1.5-2.3-2.1s-2.1-1-3.3-1.5
				c-1.3-0.4-2.6-0.8-3.9-1.2c-1.3-0.4-2.6-0.8-4.1-1.4c-1.4-0.5-2.7-1.3-3.9-2.3c-1.2-1-2.2-2.2-2.9-3.7c-0.8-1.5-1.2-3.4-1.2-5.7
				c0-3.4,0.9-6.3,2.6-8.7c1.7-2.3,4-4.2,6.6-5.7s5.6-2.5,8.7-3.1c3.2-0.6,6.2-0.9,9-0.9c3.8,0,7,0.4,9.7,1.3
				c2.7,0.9,4.8,1.9,6.2,3.1l-3,11.2H1273.9z"/>
			<path class="st1" d="M1307.1,655c-0.2,1.2-0.4,2.3-0.4,3.4c-0.1,1.1-0.1,2-0.1,2.9c0,0.5,0,1,0.1,1.6c0.1,0.6,0.2,1.1,0.4,1.7
				c0.2,0.5,0.5,0.9,0.8,1.3c0.3,0.3,0.8,0.5,1.5,0.5c0.5,0,1-0.2,1.7-0.5c0.6-0.3,1.2-0.8,1.9-1.4c0.6-0.6,1.2-1.3,1.8-2.2
				c0.6-0.9,1-1.8,1.3-2.9h13.2l-2.1,8.6c-1.1,0.7-2.3,1.3-3.7,1.8c-1.4,0.5-2.9,0.9-4.4,1.2c-1.6,0.3-3.1,0.5-4.8,0.6
				c-1.6,0.1-3.1,0.2-4.6,0.2c-2.7,0-5.2-0.2-7.5-0.7c-2.3-0.5-4.3-1.3-6-2.5c-1.7-1.2-3.1-2.8-4.1-4.7c-1-2-1.5-4.4-1.5-7.3
				c0-2.6,0.4-5.2,1.2-7.7c0.8-2.5,2.2-4.8,4.2-6.7c2-2,4.6-3.5,7.9-4.7c3.3-1.2,7.4-1.8,12.4-1.8c5.4,0,9.4,0.8,12.1,2.5
				c2.7,1.7,4.1,4.3,4.1,7.8c0,1.5-0.2,3-0.6,4.7c-0.4,1.7-1.1,3.1-1.9,4.3H1307.1z M1317.8,645.4c0-1.7-0.3-2.8-0.8-3.4
				c-0.5-0.6-1.2-0.9-1.9-0.9c-0.9,0-1.7,0.3-2.4,0.8c-0.7,0.6-1.4,1.3-2,2.3c-0.6,0.9-1.1,2-1.6,3.2s-0.9,2.5-1.2,3.8h9.2
				c0.1-0.6,0.2-1.3,0.3-2c0.1-0.6,0.2-1.2,0.3-1.9C1317.8,646.7,1317.8,646,1317.8,645.4z"/>
			<path class="st1" d="M1340.1,636.6h13.1l1.2,6h0.6c1.2-1.9,2.8-3.6,4.8-4.9c1.9-1.3,4.5-2,7.7-2c0.2,0,0.6,0,1,0
				c0.5,0,1,0.1,1.5,0.2c0.6,0.1,1.2,0.3,1.8,0.6c0.6,0.2,1.2,0.6,1.8,1l-3.5,16.6h-8.8c-0.1-3.3-0.4-5.7-0.9-7
				c-0.5-1.3-1.3-2-2.3-2c-0.5,0-1.1,0.1-1.7,0.4c-0.6,0.2-1.2,0.8-1.9,1.6l-5.2,24.1h-16.4L1340.1,636.6z"/>
			<path class="st1" d="M1375.5,636.6h17.1l3.3,23.7l11.8-23.7h8.5l-18.3,34.7h-16.8L1375.5,636.6z"/>
			<path class="st1" d="M1429.7,671.2h-16.4l7.3-34.7h16.5L1429.7,671.2z M1439.3,626c0,1.2-0.3,2.3-0.8,3.2c-0.5,0.9-1.2,1.7-2,2.3
				c-0.8,0.6-1.8,1.1-2.9,1.5c-1.1,0.3-2.2,0.5-3.3,0.5c-2.2,0-4-0.5-5.4-1.5c-1.5-1-2.2-2.6-2.2-4.8c0-1.2,0.2-2.2,0.7-3.2
				c0.5-0.9,1.1-1.7,2-2.3c0.8-0.6,1.8-1.1,2.9-1.4c1.1-0.3,2.2-0.5,3.4-0.5c2.1,0,3.9,0.5,5.3,1.5
				C1438.5,622.3,1439.3,623.9,1439.3,626z"/>
			<path class="st1" d="M1473.5,669.3c-2.3,0.9-4.6,1.6-7.1,2c-2.5,0.4-5.3,0.6-8.5,0.6c-2.8,0-5.4-0.3-7.7-0.8
				c-2.3-0.6-4.4-1.5-6.1-2.7c-1.7-1.2-3.1-2.8-4-4.8c-1-2-1.5-4.3-1.5-7.1c0-2.9,0.5-5.6,1.5-8.1c1-2.5,2.5-4.7,4.5-6.6
				c2-1.9,4.6-3.4,7.7-4.4c3.1-1.1,6.8-1.6,11.1-1.6c3.5,0,6.5,0.3,9.1,0.8c2.6,0.6,4.7,1.8,6.4,3.8l-2.3,10.3h-11
				c0.1-0.9,0.1-1.7,0.2-2.4c0.1-0.7,0.1-1.5,0.1-2.3c0-1.7-0.2-2.9-0.6-3.7c-0.4-0.7-1-1.1-1.9-1.1c-1.5,0-2.8,0.7-4,2.2
				c-1.1,1.5-2.1,3.3-2.8,5.3c-0.7,2.1-1.3,4.2-1.6,6.5c-0.4,2.3-0.5,4.2-0.5,5.8c0,0.6,0,1.2,0.1,1.8c0.1,0.6,0.2,1.2,0.4,1.7
				c0.2,0.5,0.4,1,0.8,1.3s0.8,0.5,1.4,0.5c0.5,0,1.2-0.2,1.9-0.5c0.7-0.3,1.4-0.8,2-1.5c0.6-0.7,1.3-1.5,1.9-2.6
				c0.6-1.1,1-2.4,1.4-3.9h11.5L1473.5,669.3z"/>
			<path class="st1" d="M1497.3,655c-0.2,1.2-0.4,2.3-0.4,3.4c-0.1,1.1-0.1,2-0.1,2.9c0,0.5,0,1,0.1,1.6c0.1,0.6,0.2,1.1,0.4,1.7
				c0.2,0.5,0.5,0.9,0.8,1.3c0.3,0.3,0.8,0.5,1.5,0.5c0.5,0,1-0.2,1.7-0.5c0.6-0.3,1.2-0.8,1.9-1.4c0.6-0.6,1.2-1.3,1.8-2.2
				c0.6-0.9,1-1.8,1.3-2.9h13.2l-2.1,8.6c-1.1,0.7-2.3,1.3-3.7,1.8c-1.4,0.5-2.9,0.9-4.4,1.2c-1.6,0.3-3.1,0.5-4.8,0.6
				c-1.6,0.1-3.1,0.2-4.6,0.2c-2.7,0-5.2-0.2-7.5-0.7c-2.3-0.5-4.3-1.3-6-2.5c-1.7-1.2-3.1-2.8-4.1-4.7c-1-2-1.5-4.4-1.5-7.3
				c0-2.6,0.4-5.2,1.2-7.7c0.8-2.5,2.2-4.8,4.2-6.7c2-2,4.6-3.5,7.9-4.7c3.3-1.2,7.4-1.8,12.4-1.8c5.4,0,9.4,0.8,12.1,2.5
				c2.7,1.7,4.1,4.3,4.1,7.8c0,1.5-0.2,3-0.6,4.7c-0.4,1.7-1.1,3.1-1.9,4.3H1497.3z M1508,645.4c0-1.7-0.3-2.8-0.8-3.4
				c-0.5-0.6-1.2-0.9-1.9-0.9c-0.9,0-1.7,0.3-2.4,0.8c-0.7,0.6-1.4,1.3-2,2.3c-0.6,0.9-1.1,2-1.6,3.2s-0.9,2.5-1.2,3.8h9.2
				c0.1-0.6,0.2-1.3,0.3-2c0.1-0.6,0.2-1.2,0.3-1.9C1508,646.7,1508,646,1508,645.4z"/>
			<path class="st1" d="M1571.6,671.2l-1.9-4.4h-0.5c-0.4,0.4-0.9,0.9-1.6,1.5c-0.7,0.6-1.6,1.2-2.7,1.7c-1.1,0.5-2.5,1-4,1.3
				s-3.3,0.5-5.3,0.5c-2.2,0-4.2-0.3-6.2-0.8c-2-0.5-3.7-1.4-5.2-2.5c-1.5-1.1-2.7-2.6-3.6-4.4c-0.9-1.8-1.4-3.9-1.4-6.4
				c0-2,0.3-4,1-5.8c0.7-1.8,1.7-3.5,3.1-5c1.4-1.5,3.2-2.8,5.3-4c2.1-1.1,4.7-2,7.7-2.7c-0.7-1.6-1.2-2.8-1.5-3.8
				c-0.3-1-0.5-2.1-0.5-3.3c0-2.1,0.4-4.1,1.3-5.8c0.9-1.7,2.1-3.2,3.6-4.4s3.4-2.1,5.6-2.8c2.2-0.7,4.6-1,7.1-1
				c4.2,0,7.7,0.9,10.4,2.7c2.7,1.8,4,4.5,4,8c0,1.9-0.4,3.4-1.1,4.6c-0.7,1.2-1.6,2.2-2.6,2.9c-1,0.8-2.1,1.3-3.3,1.8
				c-1.2,0.4-2.1,0.8-2.9,1.2l3.9,7.7c1.6-2.3,2.8-4.4,3.5-6.4h5.7c-0.5,1.9-1.3,3.8-2.3,5.6c-1,1.8-2.1,3.6-3.2,5.4l-0.8,1.2
				l9.2,17.3H1571.6z M1558.7,644.8c-0.9,0.5-1.7,1.6-2.3,3.2c-0.6,1.6-0.9,3.3-0.9,4.9c0,1.2,0.2,2.4,0.6,3.6
				c0.4,1.2,0.9,2.2,1.7,3.1c0.7,0.9,1.6,1.7,2.6,2.2c1,0.6,2.2,0.8,3.5,0.8c0.9,0,1.5-0.1,1.9-0.3c0.4-0.2,0.8-0.5,1.2-0.9
				L1558.7,644.8z M1573.2,623.7c-1.3,0-2.2,0.3-2.8,0.8c-0.6,0.6-0.8,1.2-0.8,2c0,0.9,0.3,2,1,3.3l3.3,6.2c1.7-0.4,3-1.3,3.9-2.5
				c0.9-1.2,1.3-2.6,1.3-4c0-1.5-0.5-2.9-1.5-4.1C1576.6,624.3,1575.1,623.7,1573.2,623.7z"/>
			<path class="st1" d="M1635.1,642.3L1655,620h9.1l-18.1,19.6l12.3,31.7h-17.6l-7.1-22.5l-4.8,22.5h-17.4l10.9-51.2h17.5
				L1635.1,642.3z"/>
			<path class="st1" d="M1671.4,620h33.9l-1.3,6.1h-16.5l-3.1,14.8h13.8l-1.3,6.2H1683l-5.2,24.1h-17.4L1671.4,620z"/>
			<path class="st1" d="M1699.8,663.9l26.5-37.7H1706l1.2-6.1h39.8l-0.7,6.9l-26.3,38.2h21.2l-1.1,6.1h-41.8L1699.8,663.9z"/>
			<path class="st1" d="M1745.7,650.6h25.4l-1.6,7.3H1744L1745.7,650.6z"/>
			<path class="st1" d="M1820.3,626.2h-13l-9.6,45.1h-17.4l9.6-45.1h-12.8l1.5-6.1h43.1L1820.3,626.2z"/>
			<path class="st1" d="M1828.1,655c-0.2,1.2-0.4,2.3-0.4,3.4c-0.1,1.1-0.1,2-0.1,2.9c0,0.5,0,1,0.1,1.6c0.1,0.6,0.2,1.1,0.4,1.7
				c0.2,0.5,0.5,0.9,0.8,1.3c0.3,0.3,0.8,0.5,1.5,0.5c0.5,0,1-0.2,1.7-0.5c0.6-0.3,1.2-0.8,1.9-1.4c0.6-0.6,1.2-1.3,1.8-2.2
				c0.6-0.9,1-1.8,1.3-2.9h13.2l-2.1,8.6c-1.1,0.7-2.3,1.3-3.7,1.8c-1.4,0.5-2.9,0.9-4.4,1.2c-1.6,0.3-3.1,0.5-4.8,0.6
				c-1.6,0.1-3.1,0.2-4.6,0.2c-2.7,0-5.2-0.2-7.5-0.7c-2.3-0.5-4.3-1.3-6-2.5c-1.7-1.2-3.1-2.8-4.1-4.7c-1-2-1.5-4.4-1.5-7.3
				c0-2.6,0.4-5.2,1.2-7.7c0.8-2.5,2.2-4.8,4.2-6.7c2-2,4.6-3.5,7.9-4.7c3.3-1.2,7.4-1.8,12.4-1.8c5.4,0,9.4,0.8,12.1,2.5
				c2.7,1.7,4.1,4.3,4.1,7.8c0,1.5-0.2,3-0.6,4.7c-0.4,1.7-1.1,3.1-1.9,4.3H1828.1z M1838.9,645.4c0-1.7-0.3-2.8-0.8-3.4
				c-0.5-0.6-1.2-0.9-1.9-0.9c-0.9,0-1.7,0.3-2.4,0.8c-0.7,0.6-1.4,1.3-2,2.3c-0.6,0.9-1.1,2-1.6,3.2s-0.9,2.5-1.2,3.8h9.2
				c0.1-0.6,0.2-1.3,0.3-2c0.1-0.6,0.2-1.2,0.3-1.9C1838.8,646.7,1838.9,646,1838.9,645.4z"/>
			<path class="st1" d="M1870.2,671.2h-16.4l7.3-34.7h16.5L1870.2,671.2z M1879.8,626c0,1.2-0.3,2.3-0.8,3.2c-0.5,0.9-1.2,1.7-2,2.3
				c-0.8,0.6-1.8,1.1-2.9,1.5c-1.1,0.3-2.2,0.5-3.3,0.5c-2.2,0-4-0.5-5.4-1.5c-1.5-1-2.2-2.6-2.2-4.8c0-1.2,0.2-2.2,0.7-3.2
				c0.5-0.9,1.1-1.7,2-2.3c0.8-0.6,1.8-1.1,2.9-1.4c1.1-0.3,2.2-0.5,3.4-0.5c2.1,0,3.9,0.5,5.3,1.5
				C1879.1,622.3,1879.8,623.9,1879.8,626z"/>
			<path class="st1" d="M1893.9,671.2h-16.4l11.4-54.2h16.5L1893.9,671.2z"/>
			<path class="st1" d="M1919.5,655c-0.2,1.2-0.4,2.3-0.4,3.4c-0.1,1.1-0.1,2-0.1,2.9c0,0.5,0,1,0.1,1.6c0.1,0.6,0.2,1.1,0.4,1.7
				c0.2,0.5,0.5,0.9,0.8,1.3c0.3,0.3,0.8,0.5,1.5,0.5c0.5,0,1-0.2,1.7-0.5c0.6-0.3,1.2-0.8,1.9-1.4c0.6-0.6,1.2-1.3,1.8-2.2
				c0.6-0.9,1-1.8,1.3-2.9h13.2l-2.1,8.6c-1.1,0.7-2.3,1.3-3.7,1.8c-1.4,0.5-2.9,0.9-4.4,1.2c-1.6,0.3-3.1,0.5-4.8,0.6
				c-1.6,0.1-3.1,0.2-4.6,0.2c-2.7,0-5.2-0.2-7.5-0.7c-2.3-0.5-4.3-1.3-6-2.5c-1.7-1.2-3.1-2.8-4.1-4.7c-1-2-1.5-4.4-1.5-7.3
				c0-2.6,0.4-5.2,1.2-7.7c0.8-2.5,2.2-4.8,4.2-6.7c2-2,4.6-3.5,7.9-4.7c3.3-1.2,7.4-1.8,12.4-1.8c5.4,0,9.4,0.8,12.1,2.5
				c2.7,1.7,4.1,4.3,4.1,7.8c0,1.5-0.2,3-0.6,4.7c-0.4,1.7-1.1,3.1-1.9,4.3H1919.5z M1930.2,645.4c0-1.7-0.3-2.8-0.8-3.4
				c-0.5-0.6-1.2-0.9-1.9-0.9c-0.9,0-1.7,0.3-2.4,0.8c-0.7,0.6-1.4,1.3-2,2.3c-0.6,0.9-1.1,2-1.6,3.2s-0.9,2.5-1.2,3.8h9.2
				c0.1-0.6,0.2-1.3,0.3-2c0.1-0.6,0.2-1.2,0.3-1.9C1930.2,646.7,1930.2,646,1930.2,645.4z"/>
		</g>
	</g>
</g>
</svg>
